<?xml version="1.0" encoding="utf-8"?>
<!-- Generator: Adobe Illustrator 23.1.1, SVG Export Plug-In . SVG Version: 6.00 Build 0)  -->
<svg version="1.1" id="Layer_1" xmlns="http://www.w3.org/2000/svg" xmlns:xlink="http://www.w3.org/1999/xlink" x="0px" y="0px"
	 viewBox="0 0 151 251" style="enable-background:new 0 0 151 251;" xml:space="preserve">
<style type="text/css">
	.st0{fill:#D5DCF0;}
</style>
<path class="st0" d="M143.5,107.5l-100-100c-9.9-9.9-26.1-9.9-36,0C2.6,12.3,0,18.7,0,25.5s2.6,13.2,7.5,18l82,82l-82,82
	c-4.8,4.8-7.5,11.2-7.5,18c0,6.7,2.6,13.1,7.3,17.8c4.7,4.9,11.3,7.7,18.2,7.7c6.9,0,13.5-2.8,18.2-7.6l99.9-99.9
	c4.8-4.8,7.5-11.3,7.5-18C151,118.8,148.2,112.2,143.5,107.5z"/>
</svg>
