<?xml version="1.0" encoding="utf-8"?>
<!-- Generator: Adobe Illustrator 23.0.2, SVG Export Plug-In . SVG Version: 6.00 Build 0)  -->
<svg version="1.1" id="Layer_1" xmlns="http://www.w3.org/2000/svg" xmlns:xlink="http://www.w3.org/1999/xlink" x="0px" y="0px"
	 viewBox="0 0 152.2 20" style="enable-background:new 0 0 152.2 20;" xml:space="preserve">
<style type="text/css">
	.st0{fill:#4CA1D2;}
	.st1{fill:#003055;}
</style>
<g>
	<path class="st0" d="M1.7,1.4h5.1l2,5.9C9,7.9,9.1,8.1,9.3,8.8c0.1,0.3,0.5,1.5,0.5,1.8h0.1c0.3-1.2,0.5-2.1,1-3.3l2-5.8h5.1v14.1
		h-3.3V7.9c0-1,0.1-2.7,0.2-4h-0.1l-3.6,11.6H8.6L4.9,3.9H4.8c0,0.7,0.2,3.5,0.2,4.1v7.5H1.7V1.4z"/>
	<path class="st0" d="M22.6,5.3l1.8,5h0.2l1.5-5h3.2l-3.1,9.4c-1.1,3.5-2.5,4.1-5.1,4.1c-0.8,0-1,0-1.6-0.1v-2.3l1.2,0.1
		c1.1,0,1.5-0.5,1.7-0.7c0.4-0.5,0.4-0.8,0.4-1.4l-3.5-9.2H22.6z"/>
	<path class="st1" d="M43.5,1.4V4h-4.3v11.5h-4V4h-4.4V1.4H43.5z"/>
	<path class="st1" d="M47.2,5c1.4,0,3.2,0.1,4.3,1.6c0.6,0.8,0.8,2,0.8,3.8c0,2.1,0,3.3-1.4,4.3c-0.4,0.3-1.2,1-3.4,1
		c-0.8,0-2.1,0-2.9-0.4c-2.1-1-2.2-2.6-2.2-5.1C42.4,8.3,42.4,5,47.2,5z M45.7,11.1c0,0.4,0.1,1.3,0.2,1.6c0.3,0.9,1.2,0.9,1.5,0.9
		c1.6,0,1.6-0.9,1.6-3.7c0-1.6,0-2.9-1.5-2.9c-1.6,0-1.6,1.3-1.6,2L45.7,11.1L45.7,11.1z"/>
	<path class="st1" d="M62.4,5.3l1.4,4.2c0.1,0.3,0.5,1.4,0.5,1.6h0.1c0.2-0.7,0.3-1,0.5-1.7l1.2-4.2h3l-3.3,10.2h-2.5l-1.5-4.6
		c-0.2-0.7-0.3-1-0.5-1.6h-0.1c-0.2,0.5-0.3,0.9-0.5,1.6l-1.4,4.6h-2.5L53.3,5.3h2.9l1.2,4.1c0.3,1.1,0.4,1.2,0.5,1.8h0.1
		c0.1-0.5,0.2-0.9,0.4-1.3c0.1-0.2,0.2-0.4,0.2-0.6l1.2-4L62.4,5.3L62.4,5.3z"/>
	<path class="st1" d="M72.5,11c0,1,0,2.8,2.3,2.8c1,0,1.9-0.1,3.3-0.7l0.4,2c-1.3,0.4-2.3,0.7-4,0.7c-1.5,0-4-0.3-4.8-2.6
		c-0.2-0.7-0.3-2-0.3-2c0-1.8,0-3.5,0.9-4.6C71.1,5.2,73,5,74,5c2,0,3,0.7,3.6,1.4c0.8,0.9,0.8,1.8,0.8,4.5C78.4,11,72.5,11,72.5,11
		z M75.6,9.5c0-1.6,0-2.7-1.7-2.7c-1.5,0-1.5,1.4-1.5,2.7H75.6z"/>
	<path class="st1" d="M80.7,5.3h3.2v2.3H84c1.2-2.2,2.5-2.5,3.7-2.6v3.5c-1.4,0-2.3,0-3.6,0.9v6h-3.4L80.7,5.3L80.7,5.3z"/>
	<path class="st1" d="M90,1.4h3.9v5.3h4.9V1.4h3.9v14.1h-3.8V9.4h-5v6.1H90V1.4z"/>
	<path class="st1" d="M107.6,11c0,1,0,2.8,2.3,2.8c1,0,1.9-0.1,3.3-0.7l0.4,2c-1.3,0.4-2.3,0.7-4,0.7c-1.5,0-4-0.3-4.8-2.6
		c-0.2-0.7-0.3-2-0.3-2c0-1.8,0-3.5,0.9-4.6c1-1.3,2.8-1.4,3.8-1.4c2,0,3,0.7,3.6,1.4c0.8,0.9,0.8,1.8,0.8,4.5
		C113.5,11,107.6,11,107.6,11z M110.8,9.5c0-1.6,0-2.7-1.7-2.7c-1.5,0-1.5,1.4-1.5,2.7H110.8z"/>
	<path class="st1" d="M115.2,6.4c1-0.7,2.1-1.3,4.8-1.3c0.9,0,2.7,0.2,3.8,1c1,0.8,1,1.6,1,2.1v5c0,0.1,0.1,0.6,0.7,0.6v1.8h-1
		c-1.6,0-2.3-0.8-2.6-1.3h-0.1c-0.4,0.4-0.6,0.7-1.1,0.9c-0.2,0.1-1.1,0.5-2.2,0.5c-1.3,0-3.4-0.6-3.4-2.9c0-0.9,0.4-2.4,2.7-3.3
		c1.2-0.4,2.5-0.7,3.6-0.7c0-1,0-1.3-0.2-1.6c-0.2-0.3-0.7-0.4-1.4-0.4c-1.5,0-2.3,0.6-3,1.1L115.2,6.4z M121.4,10.3
		c-0.7,0.1-3.1,0.5-3.1,2.2c0,0.7,0.5,1.3,1.3,1.3c1.5,0,1.8-1.2,1.8-1.9L121.4,10.3L121.4,10.3z"/>
	<path class="st1" d="M127.2,1.4h3.3v14.1h-3.3V1.4z"/>
	<path class="st1" d="M131.8,5.3h1.9V1.6h3.3v3.7h2.4v2h-2.4v5.3c0,0.3,0,0.8,1.6,0.8c0.2,0,0.2,0,0.9-0.1v2.1
		c-1.4,0.1-1.5,0.1-2,0.1c-1.4,0-3.9-0.1-3.9-2.8V7.3h-1.9L131.8,5.3L131.8,5.3z"/>
	<path class="st1" d="M141,1.4h3.3v4.1l0,1.4h0.1c1-1.4,2.2-1.8,3.5-1.8c1,0,1.9,0.3,2.5,1c0.5,0.7,0.5,1.5,0.5,2.1v7.3h-3.3V9
		c0-0.6,0-1.5-1.1-1.5c-0.8,0-1.2,0.3-2.1,1v7.1h-3.3L141,1.4L141,1.4z"/>
</g>
</svg>
