<svg xmlns="http://www.w3.org/2000/svg" width="354.8" height="304.36" viewBox="0 0 354.8 304.36"><defs><style>.a{fill:#231f20;}</style></defs><title>th-icons</title><path class="a" d="M233,41V20h19.5a10,10,0,0,0,0-20h-59a10,10,0,0,0,0,20H213V41a131.79,131.79,0,0,0-90,45.57l15.17,13a111.86,111.86,0,1,1,0,145.73l-15.17,13a131.79,131.79,0,0,0,100,46c72.7,0,131.85-59.15,131.85-131.86C354.8,103.16,301,46.15,233,41Z"/><path class="a" d="M279.51,110.19a10,10,0,0,0-14.13.52l-26.62,28.65a36.84,36.84,0,1,0,15,13.22L280,124.32A10,10,0,0,0,279.51,110.19Zm-56.56,79a16.72,16.72,0,1,1,16.72-16.72A16.74,16.74,0,0,1,223,189.22Z"/><path class="a" d="M31.35,172.5a10,10,0,0,0,10,10H161.84a10,10,0,1,0,0-20H41.35A10,10,0,0,0,31.35,172.5Z"/><path class="a" d="M140.49,218.61a10,10,0,0,0-10-10H10a10,10,0,0,0,0,20H130.49A10,10,0,0,0,140.49,218.61Z"/><path class="a" d="M10,136.39H130.49a10,10,0,0,0,0-20H10a10,10,0,1,0,0,20Z"/></svg>