<svg xmlns="http://www.w3.org/2000/svg" width="275.45" height="347.31" viewBox="0 0 275.45 347.31"><defs><style>.a{fill:none;}.b{fill:#231f20;}</style></defs><title>th-icons</title><path class="a" d="M72.52,152.88a33.07,33.07,0,1,0,33.07-33.08A33.11,33.11,0,0,0,72.52,152.88Z"/><path d="M191.18,152.68c0,36.92-55.84,124.66-85.59,167.35C75.84,277.35,20,189.62,20,152.68A85.56,85.56,0,0,1,143.07,75.75l-4.92-23.52A105.6,105.6,0,0,0,0,152.68C0,176.42,16.57,215.88,49.24,270c23.83,39.46,48,72.88,48.25,73.22a10,10,0,0,0,16.2,0c.24-.34,24.42-33.76,48.25-73.22,32.67-54.08,49.24-93.54,49.24-117.28a105.24,105.24,0,0,0-5.94-34.92l-23.66-4.38A85,85,0,0,1,191.18,152.68Z"/><path d="M52.52,152.88A53.07,53.07,0,1,0,105.59,99.8,53.13,53.13,0,0,0,52.52,152.88Zm86.14,0a33.07,33.07,0,1,1-33.07-33.08A33.11,33.11,0,0,1,138.66,152.88Z"/><path class="b" d="M273.16,122.77,244.69,88.34a53.09,53.09,0,1,0-15.88,12.18l28.94,35a10,10,0,1,0,15.41-12.74ZM172,53.07a33.08,33.08,0,1,1,33.08,33.08A33.12,33.12,0,0,1,172,53.07Z"/></svg>