<svg xmlns="http://www.w3.org/2000/svg" width="2.72in" height="2.78in" viewBox="0 0 195.56 200.12"><defs><style>.b{fill:#003055}.c{fill:#4ca1d1}</style></defs><path d="M194.76 159.25H1.28a.79.79 0 1 1 0-1.58h193.48a.79.79 0 1 1 0 1.58z" fill="#4ca1d2"/><path class="b" d="M103.4 131.53h2.31v8.24h10.38v-8.24h2.31v19.44h-2.31v-9.06h-10.38v9.06h-2.31zM120.49 131.53h12.22v2.14h-9.92v6.1h9.26v2.14h-9.26v6.92h10.41v2.14h-12.71zM142.4 131.53h2.17l8.27 19.44h-2.69l-2-4.78h-9.72l-2 4.78h-2.61zm1 3h-.06l-4 9.56h7.94zM154.73 131.53h2.31v17.3h8.9v2.14h-11.21zM178.28 133.67h-6.4v17.3h-2.31v-17.3h-6.43v-2.14h15.14zM180.33 131.53h2.31v8.24h10.38v-8.24h2.31v19.44h-2.31v-9.06h-10.38v9.06h-2.31zM15.22 133.82H8.77v17.37H6.45v-17.37H0v-2.15h15.22zM25.36 151.68a10.68 10.68 0 0 1-4.09-.77 9.8 9.8 0 0 1-3.23-2.14 9.63 9.63 0 0 1-2.12-3.25 11.41 11.41 0 0 1 0-8.19 9.63 9.63 0 0 1 2.12-3.27 10 10 0 0 1 3.24-2.12 11.27 11.27 0 0 1 8.19 0 10 10 0 0 1 3.22 2.12 9.63 9.63 0 0 1 2.12 3.25 11.41 11.41 0 0 1 0 8.19 9.63 9.63 0 0 1-2.12 3.25 9.8 9.8 0 0 1-3.23 2.14 10.69 10.69 0 0 1-4.1.79zm0-2.15a7.61 7.61 0 0 0 3.13-.63 7.25 7.25 0 0 0 2.44-1.74 7.89 7.89 0 0 0 1.59-2.58 9.17 9.17 0 0 0 0-6.31 8.1 8.1 0 0 0-1.59-2.58 7.63 7.63 0 0 0-11.13 0 7.93 7.93 0 0 0-1.59 2.58 9 9 0 0 0 0 6.31 7.72 7.72 0 0 0 1.59 2.58 7.25 7.25 0 0 0 2.48 1.74 7.6 7.6 0 0 0 3.08.63zM35.28 131.67h2.56l4.44 16.21h.06l4.8-16.21h2.59l4.77 16.21 4.52-16.21h2.43l-5.67 19.52h-2.5l-4.83-16.55-4.86 16.55H41zM63.41 131.67h12.27v2.15h-10v6.12h9.29v2.12h-9.24v7h10.45v2.15H63.41zM78.03 131.67h5a23.89 23.89 0 0 1 2.8.16 7.45 7.45 0 0 1 2.49.72 4.47 4.47 0 0 1 1.79 1.61 5.24 5.24 0 0 1 .69 2.88 4.78 4.78 0 0 1-1.29 3.48 6.23 6.23 0 0 1-3.59 1.68l5.54 9h-2.84l-5.34-8.78h-3v8.77h-2.31zm2.31 8.6h2.07c.64 0 1.31 0 2-.06a6.35 6.35 0 0 0 1.9-.36 3.25 3.25 0 0 0 1.44-.95 2.77 2.77 0 0 0 .53-1.84 3.07 3.07 0 0 0-.41-1.68 2.86 2.86 0 0 0-1.09-1 4.57 4.57 0 0 0-1.52-.45 11.89 11.89 0 0 0-1.69-.11h-3.26z"/><g><path class="c" d="M34.81 167.29h1.27l4.86 11.41h-1.58l-1.16-2.81h-5.71l-1.21 2.81h-1.5zm.61 1.74l-2.37 5.61h4.63zM48.71 177.36a2.87 2.87 0 0 1-1.12 1.09 3.43 3.43 0 0 1-1.78.44 3.87 3.87 0 0 1-1.48-.29 3.74 3.74 0 0 1-1.2-.83 3.92 3.92 0 0 1-.8-1.26 4.45 4.45 0 0 1 0-3.16 3.6 3.6 0 0 1 .81-1.26 3.51 3.51 0 0 1 1.25-.83 4.25 4.25 0 0 1 1.62-.3 3.27 3.27 0 0 1 1.5.34 3.66 3.66 0 0 1 1.2.95v-5.74h1.25v12.19h-1.25zm0-2.43a3.08 3.08 0 0 0-.19-1.11 2.6 2.6 0 0 0-1.38-1.48 2.65 2.65 0 0 0-1.11-.22 2.57 2.57 0 0 0-1.1.22 2.43 2.43 0 0 0-.85.6 2.41 2.41 0 0 0-.54.88 3.31 3.31 0 0 0 0 2.21 2.45 2.45 0 0 0 .54.89 2.55 2.55 0 0 0 2 .81 2.82 2.82 0 0 0 1.11-.21 2.68 2.68 0 0 0 .84-.6 2.45 2.45 0 0 0 .54-.89 3.07 3.07 0 0 0 .14-1.1zM55.93 178.7h-1.39l-3.08-7.55h1.47l2.35 5.91 2.24-5.92h1.35zM60.38 172.12a3.59 3.59 0 0 1 1.38-.88 5 5 0 0 1 1.62-.28 3.19 3.19 0 0 1 2.42.79 3.43 3.43 0 0 1 .74 2.4v3.91c0 .23 0 .45.08.64h-1.18a2.47 2.47 0 0 1-.07-.57v-.56a3 3 0 0 1-1 1 2.84 2.84 0 0 1-1.49.37 3.83 3.83 0 0 1-1.09-.14 2.73 2.73 0 0 1-.89-.43 2.13 2.13 0 0 1-.6-.7 2 2 0 0 1-.23-1 2.13 2.13 0 0 1 .48-1.47 3.14 3.14 0 0 1 1.21-.79 6.19 6.19 0 0 1 1.52-.35c.56 0 1.06-.06 1.53-.06h.47v-.23a1.53 1.53 0 0 0-.49-1.24 2.07 2.07 0 0 0-1.38-.42 3.78 3.78 0 0 0-1.2.2 3 3 0 0 0-1 .62zm3.64 2.94a4.49 4.49 0 0 0-1.92.34 1.16 1.16 0 0 0-.71 1.11 1.09 1.09 0 0 0 .48 1 2.49 2.49 0 0 0 2.14.11 1.84 1.84 0 0 0 .69-.49 2.14 2.14 0 0 0 .42-.72 2.74 2.74 0 0 0 .16-.87v-.48zM69.05 172.94v-1-.83h1.13v1.25a2 2 0 0 1 .36-.54 2.8 2.8 0 0 1 .55-.46 3.23 3.23 0 0 1 .73-.32 3 3 0 0 1 .87-.12 3.33 3.33 0 0 1 1.28.23 2.44 2.44 0 0 1 .9.63 2.51 2.51 0 0 1 .52 1 4.5 4.5 0 0 1 .17 1.25v4.66h-1.19v-4.53a2.43 2.43 0 0 0-.42-1.5 1.55 1.55 0 0 0-1.3-.55 2.47 2.47 0 0 0-1.06.21 1.83 1.83 0 0 0-.72.6 2.59 2.59 0 0 0-.42.92 4.69 4.69 0 0 0-.17 1.22v3.68h-1.23zM83.59 173.06a2.54 2.54 0 0 0-.87-.7 2.32 2.32 0 0 0-1-.22 2.59 2.59 0 0 0-1.11.22 2.19 2.19 0 0 0-.8.6 2.58 2.58 0 0 0-.47.9 3.51 3.51 0 0 0-.17 1.09 3.29 3.29 0 0 0 .19 1.09 2.93 2.93 0 0 0 .52.89 2.36 2.36 0 0 0 .79.61 2.56 2.56 0 0 0 1 .21 2.23 2.23 0 0 0 1.92-.93l.94.88a3.3 3.3 0 0 1-1.29.92 4.17 4.17 0 0 1-1.57.29 4.09 4.09 0 0 1-1.59-.29 3.32 3.32 0 0 1-1.24-.82 3.7 3.7 0 0 1-.79-1.26 4.63 4.63 0 0 1 0-3.17 3.72 3.72 0 0 1 .8-1.26 3.61 3.61 0 0 1 1.23-.83 4.09 4.09 0 0 1 1.59-.3 4.44 4.44 0 0 1 1.59.29 3.46 3.46 0 0 1 1.31.9zM86.03 168.2a.92.92 0 0 1 .26-.64.93.93 0 0 1 1.31 0 .89.89 0 0 1 .27.64.94.94 0 0 1-.26.67.92.92 0 0 1-1.58-.67zm.29 3h1.26v7.55h-1.3zM90.28 172.94v-1-.83h1.19v1.25a2 2 0 0 1 .36-.54 2.87 2.87 0 0 1 .56-.46 3 3 0 0 1 .72-.32 3 3 0 0 1 .87-.12 3.29 3.29 0 0 1 1.28.23 2.44 2.44 0 0 1 .9.63 2.51 2.51 0 0 1 .52 1 4.15 4.15 0 0 1 .17 1.25v4.66h-1.26v-4.53a2.49 2.49 0 0 0-.41-1.5 1.57 1.57 0 0 0-1.31-.55 2.47 2.47 0 0 0-1.06.21 1.9 1.9 0 0 0-.72.6 2.59 2.59 0 0 0-.42.92 4.69 4.69 0 0 0-.14 1.17v3.68h-1.25zM106.99 178.36a4.32 4.32 0 0 1-1.06 3.14 4.11 4.11 0 0 1-3.06 1.07 6 6 0 0 1-2-.32 4.69 4.69 0 0 1-1.7-1.12l.9-1a4.49 4.49 0 0 0 1.26 1 3.45 3.45 0 0 0 1.54.33 3.54 3.54 0 0 0 1.4-.25 2.24 2.24 0 0 0 .88-.68 2.7 2.7 0 0 0 .45-1 5.4 5.4 0 0 0 .13-1.15v-1a2.81 2.81 0 0 1-1.18 1.07 3.55 3.55 0 0 1-1.48.34 4.46 4.46 0 0 1-1.63-.29 4 4 0 0 1-1.28-.81 3.49 3.49 0 0 1-.82-1.23 4.06 4.06 0 0 1-.29-1.54 4.55 4.55 0 0 1 .29-1.66 3.4 3.4 0 0 1 .82-1.25 3.44 3.44 0 0 1 1.26-.78 4.57 4.57 0 0 1 1.65-.28 3.44 3.44 0 0 1 .77.09 3.36 3.36 0 0 1 .75.27 2.77 2.77 0 0 1 .65.47 2.58 2.58 0 0 1 .49.65v-1.29h1.26zm-6.61-3.43a2.91 2.91 0 0 0 .2 1.07 2.67 2.67 0 0 0 .58.85 2.58 2.58 0 0 0 .84.58 2.61 2.61 0 0 0 1 .21 2.73 2.73 0 0 0 1.14-.23 2.61 2.61 0 0 0 .85-.6 2.7 2.7 0 0 0 .52-.88 3 3 0 0 0 .18-1 3.14 3.14 0 0 0-.2-1.12 2.51 2.51 0 0 0-.54-.87 2.56 2.56 0 0 0-.86-.58 3 3 0 0 0-1.09-.2 2.59 2.59 0 0 0-1.09.22 2.31 2.31 0 0 0-.84.6 2.71 2.71 0 0 0-.54.88 3.08 3.08 0 0 0-.15 1.07zM114.43 167.29h1.36v4.83h6.09v-4.83h1.4v11.41h-1.4v-5.32h-6.09v5.32h-1.36zM132.8 177.33a3.89 3.89 0 0 1-1.49 1.22 4.69 4.69 0 0 1-1.87.34 3.86 3.86 0 0 1-1.59-.31 3.39 3.39 0 0 1-1.2-.85 3.63 3.63 0 0 1-.76-1.26 4.38 4.38 0 0 1-.27-1.54 4.43 4.43 0 0 1 .29-1.61 3.7 3.7 0 0 1 .81-1.25 3.55 3.55 0 0 1 1.22-.82 4.15 4.15 0 0 1 1.55-.29 3.78 3.78 0 0 1 1.45.27 3.07 3.07 0 0 1 1.14.77 3.4 3.4 0 0 1 .73 1.24 5.09 5.09 0 0 1 .26 1.67v.4h-6.09a2.65 2.65 0 0 0 .23.93 2.8 2.8 0 0 0 .52.78 2.51 2.51 0 0 0 .76.52 2.3 2.3 0 0 0 .95.19 3 3 0 0 0 1.39-.29 3.1 3.1 0 0 0 1-.85zm-1.08-3.08a2.24 2.24 0 0 0-.63-1.55 2.3 2.3 0 0 0-1.65-.58 2.46 2.46 0 0 0-1.69.58 2.4 2.4 0 0 0-.77 1.55zM135.13 172.12a3.59 3.59 0 0 1 1.38-.88 5 5 0 0 1 1.62-.28 3.17 3.17 0 0 1 2.42.79 3.43 3.43 0 0 1 .74 2.4v3.91c0 .23.05.45.08.64h-1.2a2.45 2.45 0 0 1-.08-.57v-.56a3 3 0 0 1-1 1 2.82 2.82 0 0 1-1.49.37 3.83 3.83 0 0 1-1.09-.14 2.68 2.68 0 0 1-.88-.43 2 2 0 0 1-.61-.7 2 2 0 0 1-.23-1 2.14 2.14 0 0 1 .49-1.47 3 3 0 0 1 1.2-.79 6.27 6.27 0 0 1 1.55-.32c.55 0 1.06-.06 1.52-.06h.48v-.23a1.53 1.53 0 0 0-.49-1.24 2.07 2.07 0 0 0-1.38-.42 3.87 3.87 0 0 0-1.2.2 3 3 0 0 0-1 .62zm3.65 2.94a4.43 4.43 0 0 0-1.92.34 1.16 1.16 0 0 0-.71 1.11 1.09 1.09 0 0 0 .48 1 2.15 2.15 0 0 0 1.18.3 2.22 2.22 0 0 0 1-.19 1.89 1.89 0 0 0 .68-.49 1.85 1.85 0 0 0 .42-.72 2.74 2.74 0 0 0 .16-.87v-.48zM143.92 166.51h1.26v12.19h-1.26zM152.03 172.22h-2.23v4.46a1.26 1.26 0 0 0 .13.54.89.89 0 0 0 .34.38 1.25 1.25 0 0 0 .64.13 2.83 2.83 0 0 0 .57-.06 2.06 2.06 0 0 0 .54-.2l.05 1.15a2.56 2.56 0 0 1-.71.21 5.14 5.14 0 0 1-.75.06 2.83 2.83 0 0 1-1.08-.17 1.51 1.51 0 0 1-.63-.5 2 2 0 0 1-.3-.8 6.9 6.9 0 0 1-.07-1.06v-4.14h-1.65v-1.07h1.65v-2.09h1.25v2.14h2.23zM153.8 166.51h1.26v5.69a2 2 0 0 1 .36-.44 2.52 2.52 0 0 1 .54-.4 4.09 4.09 0 0 1 .7-.29 3.12 3.12 0 0 1 .82-.11 3.33 3.33 0 0 1 1.28.23 2.44 2.44 0 0 1 .9.63 2.51 2.51 0 0 1 .52 1 4.5 4.5 0 0 1 .17 1.25v4.66h-1.26v-4.53a2.43 2.43 0 0 0-.42-1.5 1.55 1.55 0 0 0-1.3-.55 2.47 2.47 0 0 0-1.06.21 1.83 1.83 0 0 0-.72.6 2.59 2.59 0 0 0-.42.92 4.69 4.69 0 0 0-.14 1.17v3.68h-1.26zM164.02 176.86a1 1 0 0 1 .69.28.94.94 0 0 1 .28.69.88.88 0 0 1-.3.68 1 1 0 0 1-.67.29.93.93 0 0 1-.66-.29.88.88 0 0 1-.3-.68.94.94 0 0 1 .28-.69 1 1 0 0 1 .68-.28zM35.72 186.06h-3.77v10.16h-1.36v-10.16h-3.77v-1.26h8.9zM35.82 190.49v-1-.83h1.2v1.24a2.76 2.76 0 0 1 .36-.53 2.87 2.87 0 0 1 .56-.46 3.15 3.15 0 0 1 .72-.32 3.07 3.07 0 0 1 .88-.12h.25a1.1 1.1 0 0 1 .26.06l-.08 1.27a2.48 2.48 0 0 0-.68-.09 1.91 1.91 0 0 0-1.68.75 3.52 3.52 0 0 0-.52 2v3.68h-1.27zM41.61 189.67a3.48 3.48 0 0 1 1.37-.88 4.85 4.85 0 0 1 1.62-.28 3.17 3.17 0 0 1 2.42.79 3.38 3.38 0 0 1 .74 2.4v3.24a5.12 5.12 0 0 0 0 .67 5.58 5.58 0 0 0 .08.64h-1.17a2.45 2.45 0 0 1-.08-.57v-.56a2.82 2.82 0 0 1-2.48 1.32 4.22 4.22 0 0 1-1.09-.14 2.78 2.78 0 0 1-.88-.43 2 2 0 0 1-.61-.7 2 2 0 0 1-.22-1 2.13 2.13 0 0 1 .48-1.47 3 3 0 0 1 1.2-.79 5.93 5.93 0 0 1 1.55-.32c.55 0 1.06-.06 1.52-.06h.49v-.23a1.53 1.53 0 0 0-.5-1.24 2 2 0 0 0-1.37-.42 3.78 3.78 0 0 0-1.2.2 2.88 2.88 0 0 0-1 .62zm3.67 2.95a4.43 4.43 0 0 0-1.92.34 1.15 1.15 0 0 0-.71 1.11 1.09 1.09 0 0 0 .48 1 2.15 2.15 0 0 0 1.18.3 2.19 2.19 0 0 0 1-.19 2.16 2.16 0 0 0 .69-.49 2 2 0 0 0 .41-.72 2.75 2.75 0 0 0 .17-.88v-.48zM50.28 190.49v-1-.83h1.2v1.24a2.76 2.76 0 0 1 .36-.53 2.78 2.78 0 0 1 1.29-.78 3 3 0 0 1 .87-.12 3.33 3.33 0 0 1 1.28.23 2.41 2.41 0 0 1 .89.62 2.65 2.65 0 0 1 .53 1 4.5 4.5 0 0 1 .17 1.25v4.66H55.6v-4.53a2.39 2.39 0 0 0-.42-1.5 1.54 1.54 0 0 0-1.31-.55 2.43 2.43 0 0 0-1 .21 1.86 1.86 0 0 0-.73.6 2.52 2.52 0 0 0-.42.92 4.71 4.71 0 0 0-.13 1.17v3.68h-1.31zM59.61 194.27a3.34 3.34 0 0 0 .82.74 2.11 2.11 0 0 0 1.12.27 3 3 0 0 0 .59-.06 2.17 2.17 0 0 0 .54-.21 1.12 1.12 0 0 0 .38-.37.89.89 0 0 0 .15-.52.87.87 0 0 0-.14-.5 1.15 1.15 0 0 0-.36-.33 2.26 2.26 0 0 0-.52-.22l-.59-.14c-.36-.08-.7-.16-1-.26a3.48 3.48 0 0 1-.85-.38 1.85 1.85 0 0 1-.58-.6 2 2 0 0 1-.21-1 1.9 1.9 0 0 1 .24-1 2.14 2.14 0 0 1 .64-.7 3.3 3.3 0 0 1 .91-.42 3.88 3.88 0 0 1 1-.14 3.56 3.56 0 0 1 1.49.32 2.36 2.36 0 0 1 1.07 1l-1.05.69a2.06 2.06 0 0 0-.63-.65 1.76 1.76 0 0 0-1-.25 1.93 1.93 0 0 0-.53.07 1.5 1.5 0 0 0-.47.19 1.23 1.23 0 0 0-.35.33.81.81 0 0 0-.14.46.56.56 0 0 0 .16.41 1.42 1.42 0 0 0 .42.3 3.57 3.57 0 0 0 .61.22 5.4 5.4 0 0 0 .72.16 8.78 8.78 0 0 1 1 .25 2.83 2.83 0 0 1 .79.42 1.84 1.84 0 0 1 .53.64 2.46 2.46 0 0 1-.07 2.05 2.16 2.16 0 0 1-.68.73 2.9 2.9 0 0 1-1 .41 4.53 4.53 0 0 1-1.1.13 4.22 4.22 0 0 1-1.67-.3 3 3 0 0 1-1.27-1.1zM67.17 189.77h-1.64v-1.07h1.64v-1.64a6.1 6.1 0 0 1 .13-1.26 2.62 2.62 0 0 1 .45-1 2.08 2.08 0 0 1 .83-.65 3 3 0 0 1 1.27-.23 2.46 2.46 0 0 1 .52.05 1.59 1.59 0 0 1 .45.14l-.18 1.13a2.49 2.49 0 0 0-.85-.16 1.36 1.36 0 0 0-.76.17 1 1 0 0 0-.41.46 1.91 1.91 0 0 0-.16.72v2.32h1.82v1.07h-1.85v6.48h-1.26zM71.38 192.48a4.07 4.07 0 0 1 .31-1.62 3.72 3.72 0 0 1 .84-1.25 3.79 3.79 0 0 1 1.27-.81 4.61 4.61 0 0 1 3.22 0 3.83 3.83 0 0 1 1.28.81 4 4 0 0 1 .84 1.25 4.25 4.25 0 0 1 .3 1.62 4.2 4.2 0 0 1-.3 1.61 4 4 0 0 1-.84 1.25 3.68 3.68 0 0 1-1.28.81 4.61 4.61 0 0 1-3.22 0 3.64 3.64 0 0 1-1.27-.81 3.72 3.72 0 0 1-.84-1.25 4 4 0 0 1-.31-1.61zm1.36 0a3.3 3.3 0 0 0 .18 1.1 2.5 2.5 0 0 0 1.36 1.48 2.6 2.6 0 0 0 1.1.22 2.65 2.65 0 0 0 1.11-.22 2.5 2.5 0 0 0 .84-.59 2.53 2.53 0 0 0 .54-.89 3.31 3.31 0 0 0 0-2.21 2.53 2.53 0 0 0-.54-.89 2.5 2.5 0 0 0-.84-.59 2.65 2.65 0 0 0-1.11-.22 2.6 2.6 0 0 0-1.1.22 2.5 2.5 0 0 0-1.39 1.48 3.31 3.31 0 0 0-.15 1.11zM81.6 190.49v-1-.83h1.19v1.24a2.07 2.07 0 0 1 .36-.53 2.8 2.8 0 0 1 .55-.46 3.23 3.23 0 0 1 .73-.32 3 3 0 0 1 .87-.12h.26l.26.06-.08 1.27a2.54 2.54 0 0 0-.68-.09 1.93 1.93 0 0 0-1.69.75 3.52 3.52 0 0 0-.52 2v3.68h-1.26zM87.49 190.49v-1-.83h1.2v1.24a2.76 2.76 0 0 1 .36-.53 2.87 2.87 0 0 1 .56-.46 3.15 3.15 0 0 1 .72-.32 3.42 3.42 0 0 1 1.9 0 2.88 2.88 0 0 1 .68.37 1.86 1.86 0 0 1 .43.47c.1.17.19.32.25.44a3.41 3.41 0 0 1 1-1 2.46 2.46 0 0 1 1.42-.38 3.57 3.57 0 0 1 1.35.22 2.07 2.07 0 0 1 .89.63 2.52 2.52 0 0 1 .48 1 5.3 5.3 0 0 1 .15 1.31v4.58h-1.3v-4.52a3.74 3.74 0 0 0-.08-.75 1.8 1.8 0 0 0-.29-.66 1.47 1.47 0 0 0-.57-.47 2 2 0 0 0-.9-.18 1.79 1.79 0 0 0-.76.16 2.1 2.1 0 0 0-.62.45 2.55 2.55 0 0 0-.42.7 2.69 2.69 0 0 0-.15.92v4.35h-1.26v-4.27a3.44 3.44 0 0 0-.34-1.79 1.23 1.23 0 0 0-1.11-.52 2.4 2.4 0 0 0-1 .21 1.86 1.86 0 0 0-.73.6 2.52 2.52 0 0 0-.42.92 4.69 4.69 0 0 0-.14 1.17v3.68h-1.25zM101.28 185.75a.89.89 0 0 1 .27-.64.91.91 0 0 1 1.31 0 .92.92 0 0 1 .26.64.93.93 0 0 1-1.58.66.9.9 0 0 1-.26-.66zm.29 2.95h1.26v7.55h-1.26zM105.51 190.49v-1-.83h1.19v1.24a2.43 2.43 0 0 1 .37-.53 2.8 2.8 0 0 1 .55-.46 3.23 3.23 0 0 1 .73-.32 3 3 0 0 1 .87-.12 3.33 3.33 0 0 1 1.28.23 2.41 2.41 0 0 1 .89.62 2.51 2.51 0 0 1 .53 1 4.5 4.5 0 0 1 .17 1.25v4.66h-1.26v-4.53a2.39 2.39 0 0 0-.42-1.5 1.52 1.52 0 0 0-1.3-.55 2.44 2.44 0 0 0-1.06.21 1.86 1.86 0 0 0-.73.6 2.68 2.68 0 0 0-.41.92 4.27 4.27 0 0 0-.14 1.17v3.68h-1.26zM122.21 195.91a4.32 4.32 0 0 1-1.05 3.14 4.14 4.14 0 0 1-3.06 1.07 6.05 6.05 0 0 1-2-.32 4.87 4.87 0 0 1-1.7-1.12l.91-1a4.35 4.35 0 0 0 1.26 1 3.45 3.45 0 0 0 1.54.33 3.54 3.54 0 0 0 1.4-.25 2.34 2.34 0 0 0 .88-.68 2.75 2.75 0 0 0 .45-1 5.24 5.24 0 0 0 .13-1.14v-1a2.73 2.73 0 0 1-1.17 1.07 3.6 3.6 0 0 1-1.49.34 4.54 4.54 0 0 1-1.63-.29 4.06 4.06 0 0 1-1.27-.81 3.59 3.59 0 0 1-.82-1.23 4.1 4.1 0 0 1-.29-1.54 4.55 4.55 0 0 1 .29-1.66 3.3 3.3 0 0 1 .81-1.25 3.65 3.65 0 0 1 1.27-.79 4.74 4.74 0 0 1 1.64-.27 3.46 3.46 0 0 1 .78.09 3.76 3.76 0 0 1 .75.27 2.77 2.77 0 0 1 .65.47 2.81 2.81 0 0 1 .48.65v-1.29h1.25zm-6.61-3.43a2.72 2.72 0 0 0 .21 1.07 2.65 2.65 0 0 0 .57.85 2.7 2.7 0 0 0 .85.57 2.56 2.56 0 0 0 1 .21 2.81 2.81 0 0 0 1.15-.22 2.46 2.46 0 0 0 .84-.61 2.43 2.43 0 0 0 .53-.87 3 3 0 0 0 .18-1 3.14 3.14 0 0 0-.2-1.12 2.57 2.57 0 0 0-.55-.88 2.54 2.54 0 0 0-.85-.57 3 3 0 0 0-1.1-.2 2.62 2.62 0 0 0-1.09.22 2.46 2.46 0 0 0-.83.59 2.87 2.87 0 0 0-.54.89 3.08 3.08 0 0 0-.17 1.07zM129.66 184.83h1.35v10.16h5.27v1.26h-6.58zM137.53 185.75a.92.92 0 0 1 .26-.64.91.91 0 0 1 .66-.28.94.94 0 0 1 .92.92.9.9 0 0 1-.26.66.92.92 0 0 1-1.58-.66zm.29 2.95h1.26v7.55h-1.26zM145.22 196.25h-1.39l-3.08-7.55h1.47l2.35 5.92 2.24-5.92h1.35zM156.5 194.88a3.88 3.88 0 0 1-1.48 1.22 4.73 4.73 0 0 1-1.87.34 3.94 3.94 0 0 1-1.6-.31 3.58 3.58 0 0 1-1.2-.85 3.63 3.63 0 0 1-.76-1.26 4.61 4.61 0 0 1-.26-1.54 4.43 4.43 0 0 1 .29-1.61 3.72 3.72 0 0 1 .8-1.26 3.82 3.82 0 0 1 1.23-.81 4.11 4.11 0 0 1 1.55-.29 3.82 3.82 0 0 1 1.45.27 3.07 3.07 0 0 1 1.14.77 3.54 3.54 0 0 1 .73 1.24 5.09 5.09 0 0 1 .26 1.67v.4h-6.1a2.78 2.78 0 0 0 .24.93 2.61 2.61 0 0 0 .52.77 2.53 2.53 0 0 0 .76.53 2.3 2.3 0 0 0 1 .19 3.07 3.07 0 0 0 1.39-.29 3.21 3.21 0 0 0 1-.85zm-1.08-3.08a2.15 2.15 0 0 0-.63-1.55 2.22 2.22 0 0 0-1.64-.58 2.41 2.41 0 0 0-1.69.58 2.46 2.46 0 0 0-.78 1.55zM159.1 194.27a3.49 3.49 0 0 0 .81.74 2.14 2.14 0 0 0 1.12.27 3 3 0 0 0 .59-.06 2.17 2.17 0 0 0 .54-.21 1.26 1.26 0 0 0 .39-.37.88.88 0 0 0 .14-.52.87.87 0 0 0-.13-.5 1.31 1.31 0 0 0-.37-.33 2.38 2.38 0 0 0-.51-.22l-.6-.14c-.35-.08-.69-.16-1-.26a3.17 3.17 0 0 1-.85-.38 1.75 1.75 0 0 1-.58-.6 1.84 1.84 0 0 1-.22-1 1.9 1.9 0 0 1 .24-1 2.17 2.17 0 0 1 .65-.7 3.38 3.38 0 0 1 .9-.42 3.94 3.94 0 0 1 1-.14 3.49 3.49 0 0 1 1.49.32 2.38 2.38 0 0 1 1.08 1l-1.05.69a2.09 2.09 0 0 0-.64-.65 1.72 1.72 0 0 0-1-.25 1.91 1.91 0 0 0-.52.07 1.46 1.46 0 0 0-.48.19 1.19 1.19 0 0 0-.34.33.74.74 0 0 0-.14.46.59.59 0 0 0 .15.41 1.42 1.42 0 0 0 .42.3 3.92 3.92 0 0 0 .61.22 5.4 5.4 0 0 0 .72.16 8.78 8.78 0 0 1 .95.25 2.7 2.7 0 0 1 .79.42 1.65 1.65 0 0 1 .53.64 2.12 2.12 0 0 1 .2.95 2.21 2.21 0 0 1-.26 1.1 2.1 2.1 0 0 1-.69.73 2.76 2.76 0 0 1-1 .41 4.56 4.56 0 0 1-1.11.13 4.26 4.26 0 0 1-1.67-.3 3 3 0 0 1-1.26-1.1zM167.06 194.41a1 1 0 0 1 1 1 .88.88 0 0 1-.3.68 1 1 0 0 1-.67.29 1 1 0 0 1-.67-.29.91.91 0 0 1-.29-.68.94.94 0 0 1 .28-.69.91.91 0 0 1 .65-.31z"/></g><g><path class="b" d="M94.59 15.35l-1.3 1.6-.07.86a6.48 6.48 0 0 1 1.16-.75v11s1-11.58 4.92-12.78A132.09 132.09 0 0 1 98.07-.05s-.52 12.23-3.48 15.4zM114.14 65.93v21.38l-3-1.21V71.96c0-1.65-.2-3-1.07-3.62-1.24-.84-2.12.92-2.12.92v-6.52s-.07-3.3 2.86-3c3.41.32 3.33 6.19 3.33 6.19z"/><path class="b" d="M100.15 82.54l-3.59 1.25V71.27s3.21.49 3.54 5.76zm17.91 7.65l-12.29-4.85V61.8c0-8 13.52-3.57 13.52-3.57l-13.52-6.08s3.37-5.45 16.28-1.16l-16-7.5c1.28-1.42 10.07 2.22 11.44 2.79l-11.53-5.65-8.59-.15c-1.87-.07 0-.88 0-.88a12.63 12.63 0 0 1 3-.92c4.91-.67 10.23 1.82 10.23 1.82a15.1 15.1 0 0 0-10.17-3.6c-6.05.25-12.51 3-6.44-2.32 0 0 6.42-5.73 16.35-.9-3.5-6.08-11.28-5.41-11.28-5.41-4.8.17-14.51 2.18-17.4 15.1l-3 2.31-.23 2.55-2.73 2 1 .46v2.89l-1.06.38 2.48 2.74v3.79l-.64.78 1.28 1.93v32.12l-10 4.24-.38 2.22 1.54 2.9v17.73s8.87-25.31 32.83-22c0 0 4-5.56 25.74 0l-22.72-7.74s.44-6.26 12.29-2.43m-28.54-4.38l-4.24 1.42V68.05s3.76.57 4.15 6.75z"/></g></svg>