<svg xmlns="http://www.w3.org/2000/svg" width="361.09" height="139.68"><defs><style>.a{fill:#003055}.b{fill:#2255a8}</style></defs><path class="a" d="M29.93 17.51l-1.49 1.84-.08 1a6.92 6.92 0 0 1 1.32-.82V32.1s1.19-13.21 5.63-14.58A150.81 150.81 0 0 1 33.9.02s-.59 13.88-3.97 17.49zM52.24 75.25v24.41l-3.47-1.38V82.14c0-1.88-.22-3.47-1.22-4.14-1.42-1-2.42 1-2.42 1v-7.39s-.08-3.77 3.26-3.46c3.94.36 3.85 7.1 3.85 7.1z"/><path class="a" d="M56.72 102.94l-14-5.53V70.55c0-9.19 15.43-4.08 15.43-4.08l-15.47-6.94s3.86-6.23 18.6-1.33L43 49.64c1.47-1.62 11.55 2.53 13.06 3.2l-13.15-6.46-9.81-.17c-2.14-.08 0-1 0-1a13.89 13.89 0 0 1 3.45-1.06c5.6-.77 11.68 2.08 11.68 2.08a17.21 17.21 0 0 0-11.68-4.11c-6.91.29-14.27 3.4-7.34-2.65 0 0 7.32-6.54 18.66-1-4-6.93-12.88-6.17-12.88-6.17-5.48.19-16.57 2.48-19.87 17.24l-3.4 2.64-.27 2.9-3.11 2.23 1.21.53v3.3l-1.22.44 2.83 3.12v4.34l-.73.88 1.46 2.2-.05 36.67-11.41 4.84-.44 2.53 1.77 3.31v20.24s10.13-28.87 37.48-25.15c0 0 4.62-6.35 29.38 0l-25.93-8.84s.5-7.15 14-2.78m-32.58-5l-4.8 1.67.06-22s4.3.66 4.74 7.72zm12.13-3.73l-4.09 1.43.05-14.3s3.66.56 4 6.57zM214.75 47.68h3.19v11.4h14.37v-11.4h3.24v26.91h-3.19V62.05h-14.42v12.54h-3.19zM238.39 47.68h16.91v3h-13.75v8.44h12.8v3h-12.8v9.57h14.4v3h-17.56zM268.71 47.68h3l11.44 26.91h-3.72l-2.74-6.62h-13.45l-2.78 6.62h-3.61zm1.44 4.1h-.07l-5.59 13.23h11zM285.77 47.68h3.19v23.94h12.31v3h-15.5zM318.38 50.64h-8.89v24h-3.19v-24h-8.9v-3h21zM321.19 47.68h3.19v11.4h14.37v-11.4h3.19v26.91h-3.19V62.05h-14.37v12.54h-3.19zM92.74 50.84h-8.93v24h-3.2v-24h-8.93v-3h21.06zM106.78 75.57a14.72 14.72 0 0 1-5.67-1.07 13.67 13.67 0 0 1-4.46-3 13.25 13.25 0 0 1-2.94-4.51 15.81 15.81 0 0 1 0-11.33 13.3 13.3 0 0 1 2.94-4.5 13.51 13.51 0 0 1 4.46-2.95 15.53 15.53 0 0 1 11.33 0 13.51 13.51 0 0 1 4.46 2.95 13.3 13.3 0 0 1 2.94 4.5 15.81 15.81 0 0 1 0 11.33 13.25 13.25 0 0 1-2.94 4.51 13.67 13.67 0 0 1-4.46 3 14.67 14.67 0 0 1-5.66 1.07zm0-3a10.6 10.6 0 0 0 4.33-.87 10.23 10.23 0 0 0 3.37-2.41 11.06 11.06 0 0 0 2.2-3.56 12.63 12.63 0 0 0 0-8.74 11.21 11.21 0 0 0-2.2-3.57 10.35 10.35 0 0 0-3.37-2.4 11.09 11.09 0 0 0-8.66 0 10.39 10.39 0 0 0-3.38 2.4 11 11 0 0 0-2.19 3.57 12.48 12.48 0 0 0 0 8.74 10.86 10.86 0 0 0 2.19 3.56 10.27 10.27 0 0 0 3.38 2.41 10.57 10.57 0 0 0 4.33.89zM120.55 47.84h3.55l6.14 22.44h.07l6.6-22.44h3.64l6.6 22.44h.07l6.21-22.44h3.36l-7.94 27h-3.47l-6.67-22.89h-.08l-6.71 22.89h-3.51zM159.42 47.84h17v3h-13.79v8.47h12.85v3h-12.85v9.62h14.45v3h-17.66zM179.64 47.84h6.91a33.53 33.53 0 0 1 3.88.23 10.84 10.84 0 0 1 3.45 1 6.35 6.35 0 0 1 2.48 2.24 7.3 7.3 0 0 1 .95 4 6.59 6.59 0 0 1-1.76 4.81 8.59 8.59 0 0 1-5 2.33l7.67 12.39h-3.93l-7.33-12.13h-4.12v12.13h-3.2zm3.2 11.91h2.86c.89 0 1.82 0 2.77-.08a9.45 9.45 0 0 0 2.63-.5 4.57 4.57 0 0 0 2-1.31 3.82 3.82 0 0 0 .78-2.58 4.19 4.19 0 0 0-.57-2.32 4 4 0 0 0-1.51-1.36 6.28 6.28 0 0 0-2.1-.63 18.31 18.31 0 0 0-2.35-.15h-4.5z"/><g><path class="b" d="M76.87 95.22h1.45l5 11.74h-1.85l-1.18-2.9H74.7l-1.16 2.9h-1.86zm2.86 7.45l-2.18-5.39-2.22 5.39zM92.45 106.96h-1.49v-1.12a3 3 0 0 1-1.19 1 3.68 3.68 0 0 1-1.55.34 4.15 4.15 0 0 1-1.67-.34 3.63 3.63 0 0 1-1.26-.88 4 4 0 0 1-.81-1.31 4.88 4.88 0 0 1 0-3.26 3.81 3.81 0 0 1 .81-1.31 3.74 3.74 0 0 1 1.26-.87 4.15 4.15 0 0 1 1.65-.32 3.6 3.6 0 0 1 1.59.36 2.76 2.76 0 0 1 1.15 1v-5.83h1.49zm-4.08-1.19a2.67 2.67 0 0 0 1.08-.21 2.35 2.35 0 0 0 .81-.56 2.42 2.42 0 0 0 .52-.86 3.31 3.31 0 0 0 .18-1.11 3.25 3.25 0 0 0-.18-1.1 2.26 2.26 0 0 0-.52-.86 2.37 2.37 0 0 0-.81-.57 2.88 2.88 0 0 0-2.16 0 2.37 2.37 0 0 0-1.32 1.43 3 3 0 0 0-.19 1.1 3.08 3.08 0 0 0 .19 1.11 2.55 2.55 0 0 0 .51.86 2.35 2.35 0 0 0 .81.56 2.67 2.67 0 0 0 1.08.21zM93.85 99.1h1.7l2.36 6 2.25-6h1.6l-3.09 7.86h-1.62zM103.2 100.06a4.39 4.39 0 0 1 1.46-.87 5.14 5.14 0 0 1 1.66-.29 4.41 4.41 0 0 1 1.49.22 2.81 2.81 0 0 1 1 .58 2.33 2.33 0 0 1 .59.84 2.52 2.52 0 0 1 .19 1v5.42h-1.24a11.72 11.72 0 0 1-.05-1.19 2.93 2.93 0 0 1-1.18 1.08 3.74 3.74 0 0 1-1.58.31 3.58 3.58 0 0 1-1-.15 2.51 2.51 0 0 1-.88-.44 2.43 2.43 0 0 1-.46-3 2.7 2.7 0 0 1 .93-.84 4.48 4.48 0 0 1 1.38-.46 8.92 8.92 0 0 1 1.68-.14h1.09v-.33a1.59 1.59 0 0 0-.11-.6 1.62 1.62 0 0 0-.93-.92 2.09 2.09 0 0 0-.83-.14 2.78 2.78 0 0 0-.75.08 2.41 2.41 0 0 0-.59.21 2.27 2.27 0 0 0-.48.29l-.42.31zm4.22 3.12a10.09 10.09 0 0 0-1.09.06 4.29 4.29 0 0 0-1 .22 2 2 0 0 0-.75.47 1.06 1.06 0 0 0-.29.76 1.09 1.09 0 0 0 .46 1 2.23 2.23 0 0 0 1.24.3 2.38 2.38 0 0 0 1-.21 2 2 0 0 0 .7-.54 2.17 2.17 0 0 0 .38-.74 2.8 2.8 0 0 0 .11-.8v-.5zM111.86 99.1h1.5v1.21a2.24 2.24 0 0 1 1-1 3.23 3.23 0 0 1 1.61-.39 3.32 3.32 0 0 1 1.09.18 2.45 2.45 0 0 1 .91.53 2.61 2.61 0 0 1 .62.94 3.47 3.47 0 0 1 .23 1.35v5.06h-1.49v-4.64a2.61 2.61 0 0 0-.15-.94 1.66 1.66 0 0 0-.4-.63 1.52 1.52 0 0 0-.57-.35 2.19 2.19 0 0 0-.67-.11 2.39 2.39 0 0 0-.86.15 1.76 1.76 0 0 0-.7.48 2.18 2.18 0 0 0-.47.82 3.74 3.74 0 0 0-.16 1.18v4h-1.5zM126.8 101.19a3 3 0 0 0-.87-.65 2.47 2.47 0 0 0-1.09-.23 2.38 2.38 0 0 0-1.07.23 2.06 2.06 0 0 0-.76.61 2.76 2.76 0 0 0-.47.9 3.6 3.6 0 0 0-.16 1.05 2.82 2.82 0 0 0 .19 1 2.6 2.6 0 0 0 .51.85 2.43 2.43 0 0 0 .8.57 2.51 2.51 0 0 0 1 .21 2.39 2.39 0 0 0 1.08-.22 2.69 2.69 0 0 0 .83-.66l1.06 1.06a3.28 3.28 0 0 1-1.3.93 4.92 4.92 0 0 1-3.3 0 3.83 3.83 0 0 1-1.3-.84 3.63 3.63 0 0 1-.85-1.3 4.46 4.46 0 0 1-.3-1.66 4.56 4.56 0 0 1 .3-1.68 3.78 3.78 0 0 1 .84-1.31 3.67 3.67 0 0 1 1.29-.85 4.39 4.39 0 0 1 1.69-.31 4.44 4.44 0 0 1 1.65.31 3.63 3.63 0 0 1 1.37.93zM129.02 96.28a1.11 1.11 0 1 1 .32.77 1.06 1.06 0 0 1-.32-.77zm.35 2.82h1.49v7.86h-1.49zM133.32 99.1h1.49v1.21a2.24 2.24 0 0 1 1-1 3.25 3.25 0 0 1 1.61-.39 3.32 3.32 0 0 1 1.09.18 2.37 2.37 0 0 1 .91.53 2.61 2.61 0 0 1 .62.94 3.46 3.46 0 0 1 .24 1.35v5.06h-1.5v-4.64a2.61 2.61 0 0 0-.15-.94 1.78 1.78 0 0 0-.39-.63 1.64 1.64 0 0 0-.58-.35 2.14 2.14 0 0 0-.67-.11 2.39 2.39 0 0 0-.86.15 1.76 1.76 0 0 0-.7.48 2.17 2.17 0 0 0-.46.82 3.72 3.72 0 0 0-.17 1.18v4h-1.49zM150.55 106.9a4.26 4.26 0 0 1-.31 1.63 3.93 3.93 0 0 1-.87 1.28 4 4 0 0 1-1.36.84 5 5 0 0 1-1.76.3 6.51 6.51 0 0 1-2.07-.32 5 5 0 0 1-1.78-1.09l1-1.26a4.27 4.27 0 0 0 1.26 1 3.52 3.52 0 0 0 1.55.32 3.4 3.4 0 0 0 1.37-.24 2.31 2.31 0 0 0 .87-.62 2.15 2.15 0 0 0 .46-.87 3.74 3.74 0 0 0 .13-1v-1.16h-.05a2.48 2.48 0 0 1-1.17 1 3.61 3.61 0 0 1-1.55.34 4.22 4.22 0 0 1-1.6-.3 4 4 0 0 1-1.27-.85 3.88 3.88 0 0 1-.83-1.28 4.18 4.18 0 0 1-.3-1.6 4.61 4.61 0 0 1 .29-1.62 3.73 3.73 0 0 1 .8-1.31 3.63 3.63 0 0 1 1.26-.88 4.15 4.15 0 0 1 1.65-.32 3.69 3.69 0 0 1 1.55.35 2.82 2.82 0 0 1 1.19 1v-1.13h1.54zm-4.08-6.61a2.67 2.67 0 0 0-1.08.21 2.52 2.52 0 0 0-.82.57 2.37 2.37 0 0 0-.51.86 3.25 3.25 0 0 0-.18 1.1 2.66 2.66 0 0 0 .69 1.92 2.85 2.85 0 0 0 3.79 0 2.66 2.66 0 0 0 .69-1.92 3.25 3.25 0 0 0-.18-1.1 2.37 2.37 0 0 0-.51-.86 2.41 2.41 0 0 0-.82-.57 2.65 2.65 0 0 0-1.11-.21zM157.92 95.22h1.63v4.88h6.09v-4.88h1.6v11.74h-1.6v-5.37h-6.09v5.37h-1.59zM171.05 103.58a2 2 0 0 0 .22.94 2.42 2.42 0 0 0 .59.72 2.57 2.57 0 0 0 .85.46 3 3 0 0 0 1 .17 2.25 2.25 0 0 0 1.21-.32 3.82 3.82 0 0 0 .95-.86l1.13.86a4.15 4.15 0 0 1-3.49 1.61 4.3 4.3 0 0 1-1.68-.31 3.63 3.63 0 0 1-1.28-.87 3.73 3.73 0 0 1-.8-1.31 4.63 4.63 0 0 1-.29-1.64 4.38 4.38 0 0 1 .31-1.63 3.93 3.93 0 0 1 2.13-2.18 4.16 4.16 0 0 1 1.63-.32 3.76 3.76 0 0 1 1.76.37 3.41 3.41 0 0 1 1.19.95 3.79 3.79 0 0 1 .67 1.33 5.43 5.43 0 0 1 .21 1.5v.53zm4.71-1.19a3.27 3.27 0 0 0-.16-.92 2.17 2.17 0 0 0-.42-.72 2.12 2.12 0 0 0-.71-.48 2.49 2.49 0 0 0-1-.17 2.4 2.4 0 0 0-1 .2 2.54 2.54 0 0 0-.77.54 2.58 2.58 0 0 0-.49.74 2 2 0 0 0-.17.81zM179.26 100.06a4.39 4.39 0 0 1 1.46-.87 5 5 0 0 1 1.66-.29 4.35 4.35 0 0 1 1.48.22 2.65 2.65 0 0 1 1 .58 2.11 2.11 0 0 1 .59.84 2.52 2.52 0 0 1 .19 1v4.76c0 .23 0 .45.05.66h-1.33v-1.19a2.87 2.87 0 0 1-1.18 1.08 3.7 3.7 0 0 1-1.57.31 3.6 3.6 0 0 1-1.05-.15 2.55 2.55 0 0 1-.87-.44 2.13 2.13 0 0 1-.59-.74 2.35 2.35 0 0 1-.22-1 2.32 2.32 0 0 1 .34-1.28 2.7 2.7 0 0 1 .93-.84 4.57 4.57 0 0 1 1.38-.46 9.07 9.07 0 0 1 1.68-.14h1.1v-.33a1.61 1.61 0 0 0-.12-.6 1.44 1.44 0 0 0-.35-.54 1.5 1.5 0 0 0-.58-.38 2.09 2.09 0 0 0-.83-.14 2.88 2.88 0 0 0-.75.08 2.57 2.57 0 0 0-.59.21 2.27 2.27 0 0 0-.48.29l-.42.31zm4.21 3.12a10 10 0 0 0-1.08.06 4.49 4.49 0 0 0-1 .22 1.92 1.92 0 0 0-.74.47 1 1 0 0 0-.29.76 1.08 1.08 0 0 0 .45 1 2.25 2.25 0 0 0 1.24.3 2.32 2.32 0 0 0 1-.21 2 2 0 0 0 .7-.54 1.86 1.86 0 0 0 .38-.74 2.82 2.82 0 0 0 .12-.8v-.5zM188.04 94.42h1.51v12.54h-1.49zM196.2 100.39h-2.14V104.62a1.76 1.76 0 0 0 .13.58.89.89 0 0 0 .33.41 1.11 1.11 0 0 0 .66.16 3.5 3.5 0 0 0 .54-.05 1.53 1.53 0 0 0 .52-.18v1.36a2 2 0 0 1-.69.21h-.66a3 3 0 0 1-1.33-.24 1.59 1.59 0 0 1-.7-.62 1.88 1.88 0 0 1-.26-.85c0-.32-.05-.64-.05-1v-4.1h-1.72v-1.29h1.72v-2.12h1.5v2.21h2.14zM198.21 94.42h1.49v5.89a2.24 2.24 0 0 1 1-1 3.23 3.23 0 0 1 1.61-.39 3.32 3.32 0 0 1 1.09.18 2.37 2.37 0 0 1 .91.53 2.61 2.61 0 0 1 .62.94 3.47 3.47 0 0 1 .23 1.35v5.06h-1.49v-4.64a2.61 2.61 0 0 0-.15-.94 1.66 1.66 0 0 0-.4-.63 1.52 1.52 0 0 0-.57-.35 2.19 2.19 0 0 0-.67-.11 2.39 2.39 0 0 0-.86.15 1.76 1.76 0 0 0-.7.48 2.18 2.18 0 0 0-.47.82 3.74 3.74 0 0 0-.16 1.18v4h-1.49zM208.69 107.06a1.09 1.09 0 0 1-1.09-1.09 1 1 0 0 1 .32-.77 1 1 0 0 1 .77-.33 1.13 1.13 0 0 1 1.1 1.1 1 1 0 0 1-.33.77 1 1 0 0 1-.77.32zM219.74 96.71h-3.78v-1.49h9.16v1.49h-3.79v10.25h-1.59zM224.98 99.1h1.5v1.21a2 2 0 0 1 .4-.57 2.59 2.59 0 0 1 .55-.44 3.08 3.08 0 0 1 .67-.29 2.69 2.69 0 0 1 .73-.11 2 2 0 0 1 .67.1l-.07 1.61-.36-.08a2.46 2.46 0 0 0-.37 0 2.17 2.17 0 0 0-1.67.62 2.68 2.68 0 0 0-.58 1.91V107h-1.5zM231.24 100.06a4.3 4.3 0 0 1 1.46-.87 5 5 0 0 1 1.66-.29 4.35 4.35 0 0 1 1.48.22 2.65 2.65 0 0 1 1 .58 2.22 2.22 0 0 1 .59.84 2.52 2.52 0 0 1 .19 1v4.76c0 .23 0 .45.05.66h-1.33c0-.39-.05-.79-.05-1.19a2.87 2.87 0 0 1-1.18 1.08 3.71 3.71 0 0 1-1.58.31 3.58 3.58 0 0 1-1-.15 2.55 2.55 0 0 1-.87-.44 2.13 2.13 0 0 1-.59-.74 2.22 2.22 0 0 1-.22-1 2.32 2.32 0 0 1 .34-1.28 2.7 2.7 0 0 1 .93-.84 4.48 4.48 0 0 1 1.38-.46 9 9 0 0 1 1.68-.14h1.1v-.33a1.61 1.61 0 0 0-.12-.6 1.57 1.57 0 0 0-.35-.54 1.5 1.5 0 0 0-.58-.38 2.09 2.09 0 0 0-.83-.14 2.83 2.83 0 0 0-.75.08 2.57 2.57 0 0 0-.59.21 2.27 2.27 0 0 0-.48.29l-.42.31zm4.21 3.12a10.23 10.23 0 0 0-1.09.06 4.4 4.4 0 0 0-1 .22 1.92 1.92 0 0 0-.74.47 1 1 0 0 0-.29.76 1.08 1.08 0 0 0 .45 1 2.25 2.25 0 0 0 1.24.3 2.32 2.32 0 0 0 1-.21 2 2 0 0 0 1.08-1.28 2.82 2.82 0 0 0 .12-.8v-.5zM239.9 99.1h1.49v1.21a2.24 2.24 0 0 1 1-1 3.28 3.28 0 0 1 1.61-.39 3.32 3.32 0 0 1 1.09.18 2.37 2.37 0 0 1 .91.53 2.61 2.61 0 0 1 .62.94 3.46 3.46 0 0 1 .24 1.35v5.06h-1.5v-4.64a2.61 2.61 0 0 0-.15-.94 1.78 1.78 0 0 0-.39-.63 1.64 1.64 0 0 0-.58-.35 2.14 2.14 0 0 0-.67-.11 2.39 2.39 0 0 0-.86.15 1.76 1.76 0 0 0-.7.48 2.17 2.17 0 0 0-.46.82 3.72 3.72 0 0 0-.17 1.18v4h-1.49zM253.39 101.08a2.24 2.24 0 0 0-.66-.56 1.88 1.88 0 0 0-.95-.23 1.79 1.79 0 0 0-.92.23.71.71 0 0 0-.39.65.74.74 0 0 0 .22.57 2 2 0 0 0 .53.35 3.6 3.6 0 0 0 .66.2l.59.11a7.48 7.48 0 0 1 .91.28 2.54 2.54 0 0 1 .73.44 1.93 1.93 0 0 1 .48.64 2.53 2.53 0 0 1-.11 2.07 2.44 2.44 0 0 1-.73.77 3.11 3.11 0 0 1-1 .43 5 5 0 0 1-1.15.13 4.77 4.77 0 0 1-1.72-.29 3.15 3.15 0 0 1-1.32-1.1l1.13-.93a4.71 4.71 0 0 0 .81.65 2 2 0 0 0 1.1.28 2.76 2.76 0 0 0 .57-.06 2 2 0 0 0 .52-.18 1.11 1.11 0 0 0 .36-.32.72.72 0 0 0 .14-.44.73.73 0 0 0-.21-.54 1.31 1.31 0 0 0-.49-.34 3.21 3.21 0 0 0-.62-.2l-.57-.13a7.5 7.5 0 0 1-.91-.26 2.81 2.81 0 0 1-.77-.4 2 2 0 0 1-.53-.63 2.09 2.09 0 0 1-.2-1 2.17 2.17 0 0 1 .26-1.07 2.33 2.33 0 0 1 .68-.75 3 3 0 0 1 1-.45 4.09 4.09 0 0 1 1.09-.15 4 4 0 0 1 1.53.3 2.44 2.44 0 0 1 1.16 1zM257.24 100.39h-1.69V99.1h1.7v-1.76a3.82 3.82 0 0 1 .6-2.35 2.52 2.52 0 0 1 2.08-.77h.53a2.8 2.8 0 0 1 .59.1l-.17 1.33a1.66 1.66 0 0 0-.42-.12 2.81 2.81 0 0 0-.43 0 1.56 1.56 0 0 0-.66.12.85.85 0 0 0-.39.36 1.32 1.32 0 0 0-.18.55 5.6 5.6 0 0 0 0 .74v1.81h1.75v1.29h-1.79v6.57h-1.49zM261.88 103.03a4 4 0 0 1 .33-1.61 4.31 4.31 0 0 1 .88-1.31 4.17 4.17 0 0 1 1.33-.88 4.23 4.23 0 0 1 4.61.88 4.34 4.34 0 0 1 .89 1.31 4.24 4.24 0 0 1 0 3.23 4.11 4.11 0 0 1-.89 1.31 4.3 4.3 0 0 1-1.32.88 4.39 4.39 0 0 1-3.29 0 4.34 4.34 0 0 1-1.33-.88 4.08 4.08 0 0 1-.88-1.31 4 4 0 0 1-.33-1.62zm1.59 0a3.08 3.08 0 0 0 .19 1.11 2.55 2.55 0 0 0 .51.86 2.35 2.35 0 0 0 .81.56 2.88 2.88 0 0 0 2.16 0 2.35 2.35 0 0 0 .81-.56 2.42 2.42 0 0 0 .52-.86 3.31 3.31 0 0 0 .18-1.11 3.25 3.25 0 0 0-.18-1.1 2.26 2.26 0 0 0-.52-.86 2.37 2.37 0 0 0-.81-.57 2.88 2.88 0 0 0-2.16 0 2.37 2.37 0 0 0-1.32 1.43 3 3 0 0 0-.19 1.1zM272.2 99.1h1.49v1.21a2 2 0 0 1 .4-.57 2.59 2.59 0 0 1 .55-.44 3.08 3.08 0 0 1 .67-.29 2.69 2.69 0 0 1 .73-.11 2 2 0 0 1 .67.1l-.07 1.61-.36-.08a2.46 2.46 0 0 0-.37 0 2.17 2.17 0 0 0-1.67.62 2.68 2.68 0 0 0-.59 1.91V107h-1.49zM278.42 99.1h1.4v1.23a1.29 1.29 0 0 1 .26-.42 2.76 2.76 0 0 1 .53-.47 3 3 0 0 1 .76-.38 3.1 3.1 0 0 1 2.45.21 2.69 2.69 0 0 1 1 1.09 2.42 2.42 0 0 1 1.08-1.09 2.91 2.91 0 0 1 1.41-.37 3.27 3.27 0 0 1 1.49.3 2.35 2.35 0 0 1 .91.79 2.9 2.9 0 0 1 .46 1.11 6.73 6.73 0 0 1 .12 1.29v4.57h-1.49v-4.38a6.11 6.11 0 0 0-.06-.86 2.09 2.09 0 0 0-.24-.73 1.29 1.29 0 0 0-.51-.5 2.1 2.1 0 0 0-2.43.47 2.9 2.9 0 0 0-.46 1.71v4.29h-1.49v-4.12a8.05 8.05 0 0 0-.06-1 2.51 2.51 0 0 0-.23-.8 1.28 1.28 0 0 0-.5-.53 1.7 1.7 0 0 0-.87-.2 2 2 0 0 0-.77.16 1.93 1.93 0 0 0-.66.48 2.2 2.2 0 0 0-.45.8 3.63 3.63 0 0 0-.16 1.15v4.08h-1.5zM292.41 96.28a1.06 1.06 0 0 1 .32-.77 1 1 0 0 1 .77-.33 1.1 1.1 0 0 1 0 2.2 1 1 0 0 1-.77-.33 1.06 1.06 0 0 1-.32-.77zm.35 2.82h1.49v7.86h-1.49zM296.71 99.1h1.49v1.21a2.24 2.24 0 0 1 1-1 3.23 3.23 0 0 1 1.61-.39 3.32 3.32 0 0 1 1.09.18 2.37 2.37 0 0 1 .91.53 2.61 2.61 0 0 1 .62.94 3.47 3.47 0 0 1 .23 1.35v5.06h-1.49v-4.64a2.61 2.61 0 0 0-.15-.94 1.66 1.66 0 0 0-.4-.63 1.52 1.52 0 0 0-.57-.35 2.19 2.19 0 0 0-.67-.11 2.39 2.39 0 0 0-.86.15 1.76 1.76 0 0 0-.7.48 2.33 2.33 0 0 0-.47.82 3.74 3.74 0 0 0-.16 1.18v4h-1.49zM313.89 106.9a4.26 4.26 0 0 1-.3 1.63 3.93 3.93 0 0 1-.87 1.28 4 4 0 0 1-1.36.84 5 5 0 0 1-1.76.3 6.47 6.47 0 0 1-2.07-.32 5 5 0 0 1-1.78-1.09l1-1.26a4.27 4.27 0 0 0 1.26 1 3.48 3.48 0 0 0 1.54.32 3.42 3.42 0 0 0 1.38-.24 2.31 2.31 0 0 0 .87-.62 2.15 2.15 0 0 0 .46-.87 3.74 3.74 0 0 0 .13-1v-1.16h-.05a2.58 2.58 0 0 1-1.17 1 3.61 3.61 0 0 1-1.55.34 4.22 4.22 0 0 1-1.6-.3 3.79 3.79 0 0 1-2.1-2.13 4.18 4.18 0 0 1-.3-1.6 4.84 4.84 0 0 1 .28-1.62 3.91 3.91 0 0 1 .81-1.31 3.63 3.63 0 0 1 1.26-.88 4.15 4.15 0 0 1 1.65-.32 3.69 3.69 0 0 1 1.55.35 2.82 2.82 0 0 1 1.19 1v-1.13h1.49zm-4.08-6.61a2.7 2.7 0 0 0-1.08.21 2.37 2.37 0 0 0-1.32 1.43 3.26 3.26 0 0 0-.19 1.1 2.66 2.66 0 0 0 .7 1.92 2.52 2.52 0 0 0 1.89.72 2.49 2.49 0 0 0 1.89-.72 2.62 2.62 0 0 0 .7-1.92 3.25 3.25 0 0 0-.18-1.1 2.26 2.26 0 0 0-.52-.86 2.37 2.37 0 0 0-.81-.57 2.67 2.67 0 0 0-1.08-.21zM321.31 95.22h1.59v10.25h5.39v1.49h-7zM329.39 96.28a1.11 1.11 0 1 1 .32.77 1.06 1.06 0 0 1-.32-.77zm.35 2.82h1.49v7.86h-1.49zM332.74 99.1h1.73l2.35 6 2.26-6h1.59l-3.12 7.86h-1.65zM343.19 103.58a2 2 0 0 0 .23.94 2.28 2.28 0 0 0 .59.72 2.63 2.63 0 0 0 .84.46 3.09 3.09 0 0 0 1 .17 2.28 2.28 0 0 0 1.21-.32 4 4 0 0 0 .95-.86l1.12.86a4.13 4.13 0 0 1-3.48 1.61 4.3 4.3 0 0 1-1.68-.31 3.63 3.63 0 0 1-1.28-.87 3.91 3.91 0 0 1-.81-1.31 4.63 4.63 0 0 1-.28-1.64 4.19 4.19 0 0 1 .31-1.63 3.85 3.85 0 0 1 2.13-2.18 4.16 4.16 0 0 1 1.63-.32 3.78 3.78 0 0 1 1.76.37 3.5 3.5 0 0 1 1.19.95 3.79 3.79 0 0 1 .67 1.33 5.43 5.43 0 0 1 .21 1.5v.53zm4.72-1.19a3.68 3.68 0 0 0-.16-.92 2.19 2.19 0 0 0-.43-.72 2 2 0 0 0-.7-.48 2.5 2.5 0 0 0-1-.17 2.35 2.35 0 0 0-1 .2 2.42 2.42 0 0 0-.77.54 2.39 2.39 0 0 0-.49.74 2 2 0 0 0-.18.81zM355.55 101.08a2.08 2.08 0 0 0-.65-.56 1.89 1.89 0 0 0-1-.23 1.82 1.82 0 0 0-.92.23.71.71 0 0 0-.39.65.75.75 0 0 0 .23.57 1.81 1.81 0 0 0 .53.35 3.28 3.28 0 0 0 .65.2l.6.11a8.06 8.06 0 0 1 .91.28 2.54 2.54 0 0 1 .73.44 1.93 1.93 0 0 1 .48.64 2.38 2.38 0 0 1 .17.93 2.19 2.19 0 0 1-.28 1.14 2.44 2.44 0 0 1-.73.77 3.11 3.11 0 0 1-1 .43 5 5 0 0 1-1.15.13 4.73 4.73 0 0 1-1.72-.29 3.15 3.15 0 0 1-1.32-1.1l1.13-.93a4.71 4.71 0 0 0 .81.65 2 2 0 0 0 1.1.28 2.91 2.91 0 0 0 .57-.06 1.92 1.92 0 0 0 .51-.18 1.14 1.14 0 0 0 .37-.32.72.72 0 0 0 .14-.44.73.73 0 0 0-.21-.54 1.35 1.35 0 0 0-.5-.34 3.11 3.11 0 0 0-.61-.2l-.57-.13a8.23 8.23 0 0 1-.92-.26 2.75 2.75 0 0 1-.76-.4 1.9 1.9 0 0 1-.53-.63 2.09 2.09 0 0 1-.2-1 2.17 2.17 0 0 1 .26-1.07 2.33 2.33 0 0 1 .68-.75 3 3 0 0 1 1-.45 4 4 0 0 1 1.09-.15 3.92 3.92 0 0 1 1.52.3 2.42 2.42 0 0 1 1.17 1zM360 107.06a1 1 0 0 1-.77-.32 1 1 0 0 1-.32-.77 1.1 1.1 0 0 1 2.19 0 1 1 0 0 1-.33.77 1 1 0 0 1-.77.32z"/></g><path class="b" d="M341.55 87.01H72.76a1.08 1.08 0 1 1 0-2.15h268.79a1.08 1.08 0 1 1 0 2.15z"/></svg>