<svg xmlns="http://www.w3.org/2000/svg" width="359.17" height="315.63" viewBox="0 0 359.17 315.63"><title>Pay my Bill</title><path d="M314,56.89c-.5,0-1,0-1.49,0v-.06H143.18a72.44,72.44,0,1,0-80.74,87.3V315.63H288.91V189.37h70.26V102A45.18,45.18,0,0,0,314,56.89ZM20,72.44a52.44,52.44,0,1,1,52.44,52.44A52.49,52.49,0,0,1,20,72.44ZM268.91,295.63H82.44V144.17a72.53,72.53,0,0,0,62.29-67.3H276.58A44.88,44.88,0,0,0,268.91,102Zm70.26-126.26H288.91V102a25.13,25.13,0,1,1,50.26,0Z"/><path d="M240.66,124.88H146.57a10,10,0,0,0,0,20h94.09a10,10,0,0,0,0-20Z"/><path d="M240.66,179.56H107.41a10,10,0,0,0,0,20H240.66a10,10,0,1,0,0-20Z"/><path d="M240.66,234.24H107.41a10,10,0,1,0,0,20H240.66a10,10,0,0,0,0-20Z"/><path d="M77.64,111.35v-8.3c8.8-2.18,16-8.34,16-18.61,0-8.79-5.45-13.8-13.18-16.61-1.94-.79-6.42-2.37-9-3.43s-6.16-2.46-6.16-6.15,3.34-5.45,7.91-5.45,10,2.64,13.54,6.15L92.8,49c-3.35-3.34-9.29-6.17-15.16-7.12V33.26h-13v9.51a19.35,19.35,0,0,0-7.08,3.62,17.1,17.1,0,0,0-6.33,13.27c0,5.71,2.11,9.23,4.75,11.69a23.75,23.75,0,0,0,7.21,4.39c2,.88,6.59,2.46,9.22,3.43s7.12,2.55,7.12,6.68S76,92.09,71.45,92.09,60,89,55.63,84.44l-7,10.37a35,35,0,0,0,16,8.55v8Z"/></svg>
