<svg xmlns="http://www.w3.org/2000/svg" width="286.03" height="281.32" viewBox="0 0 286.03 281.32"><title>Schedule</title><path d="M243,48.5H227.27V22.7a9,9,0,0,0-17.93,0V48.5H176V22.7a9,9,0,0,0-17.92,0V48.5H124.74V22.7a9,9,0,0,0-17.93,0V48.5H73.47V22.7a9,9,0,1,0-17.92,0V48.5H39.81A26.61,26.61,0,0,0,13.22,75.08V239.3a26.62,26.62,0,0,0,26.59,26.59H243a26.61,26.61,0,0,0,26.58-26.59V75.08A26.61,26.61,0,0,0,243,48.5Zm8.66,190.8A8.67,8.67,0,0,1,243,248H39.81a8.66,8.66,0,0,1-8.66-8.66v-124H251.67Zm0-142H31.15V75.08a8.67,8.67,0,0,1,8.66-8.66H243a8.68,8.68,0,0,1,8.66,8.66Z" /><circle cx="72.97" cy="153.55" r="13.74"/><circle cx="140.35" cy="153.55" r="13.74"/><circle cx="72.97" cy="208.09" r="13.74"/><circle cx="140.35" cy="208.09" r="13.74"/><circle cx="209.71" cy="208.09" r="13.74"/><path d="M207.69,170.6a5.85,5.85,0,0,1-4-1.6l-12.63-12a5.83,5.83,0,1,1,8-8.46l7.47,7.08,12.9-20.6a5.83,5.83,0,1,1,9.87,6.19l-16.67,26.62a5.84,5.84,0,0,1-4.2,2.69A6.13,6.13,0,0,1,207.69,170.6Z" /></svg>
