<svg xmlns="http://www.w3.org/2000/svg" width="286.03" height="281.32" viewBox="0 0 286.03 281.32"><title>Schedule an Appointment</title><path d="M256.37,38.78H238.81V10a10,10,0,0,0-20,0V38.78H181.62V10a10,10,0,0,0-20,0V38.78h-37.2V10a10,10,0,0,0-20,0V38.78H67.22V10a10,10,0,0,0-20,0V38.78H29.66A29.69,29.69,0,0,0,0,68.44V251.66a29.69,29.69,0,0,0,29.66,29.66H256.37A29.69,29.69,0,0,0,286,251.66V68.44A29.69,29.69,0,0,0,256.37,38.78ZM266,251.66a9.67,9.67,0,0,1-9.66,9.66H29.66A9.67,9.67,0,0,1,20,251.66V113.29H266Zm0-158.37H20V68.44a9.67,9.67,0,0,1,9.66-9.66H256.37A9.67,9.67,0,0,1,266,68.44Z"/><circle cx="66.66" cy="155.99" r="15.33"/><circle cx="141.83" cy="155.99" r="15.33"/><circle cx="66.66" cy="216.84" r="15.33"/><circle cx="141.83" cy="216.84" r="15.33"/><circle cx="219.22" cy="216.84" r="15.33"/><path d="M217,175a6.46,6.46,0,0,1-4.47-1.79l-14.1-13.35a6.5,6.5,0,1,1,8.94-9.44l8.33,7.9,14.39-23a6.5,6.5,0,1,1,11,6.9L222.48,172a6.5,6.5,0,0,1-4.69,3A5.76,5.76,0,0,1,217,175Z"/></svg>
