<?xml version="1.0" encoding="utf-8"?>
<!-- Generator: Adobe Illustrator 23.1.1, SVG Export Plug-In . SVG Version: 6.00 Build 0)  -->
<svg version="1.1" id="Layer_1" xmlns="http://www.w3.org/2000/svg" xmlns:xlink="http://www.w3.org/1999/xlink" x="0px" y="0px"
	 viewBox="0 0 323.4 304.4" style="enable-background:new 0 0 323.4 304.4;" xml:space="preserve">
<title>Emergency and Urgent Care Wait Times</title>
<path d="M201.6,41V20h19.5c5.5,0,10-4.5,10-10s-4.5-10-10-10h-59c-5.5,0-10,4.5-10,10s4.5,10,10,10h19.5v21
	c-34.9,2.7-67.2,19-90,45.6l15.2,13c40.2-46.9,110.9-52.2,157.7-12s52.2,110.9,12,157.7s-110.9,52.2-157.7,12
	c-4.3-3.7-8.3-7.7-12-12l-15.2,13c25,29.2,61.6,46,100,46c72.7,0,131.9-59.1,131.9-131.9C323.4,103.2,269.6,46.2,201.6,41z"/>
<path d="M248.2,110.2c-4-3.8-10.4-3.5-14.1,0.5l-26.6,28.7c-18.3-8.8-40.3-1.1-49.2,17.3s-1.1,40.3,17.3,49.2s40.3,1.1,49.2-17.3
	c5.5-11.6,4.7-25.2-2.3-35.9l26.2-28.3C252.4,120.3,252.2,114,248.2,110.2z M191.6,189.2c-9.2,0-16.7-7.5-16.7-16.7
	s7.5-16.7,16.7-16.7c9.2,0,16.7,7.5,16.7,16.7C208.3,181.7,200.9,189.2,191.6,189.2L191.6,189.2z"/>
<path d="M25.6,172.5c0,5.5,3.7,10,8.2,10h98.5c4.5,0,8.2-4.5,8.2-10s-3.7-10-8.2-10H33.8C29.3,162.5,25.6,167,25.6,172.5z"/>
<path d="M114.9,218.6c0-5.5-3.7-10-8.2-10H8.2c-4.5,0-8.2,4.5-8.2,10s3.7,10,8.2,10h98.5C111.2,228.6,114.9,224.1,114.9,218.6z"/>
<path d="M8.2,136.4h98.5c4.5,0,8.2-4.5,8.2-10c0-5.5-3.7-10-8.2-10H8.2c-4.5,0-8.2,4.5-8.2,10C0,131.9,3.7,136.4,8.2,136.4z"/>
</svg>
