<svg xmlns="http://www.w3.org/2000/svg" width="378.89" height="322.19" viewBox="0 0 378.89 322.19"><title>Find a Doctor</title><path d="M157.3,142.41a56.57,56.57,0,1,0-56.57-56.57A56.64,56.64,0,0,0,157.3,142.41Zm0-93.14a36.57,36.57,0,1,1-36.57,36.57A36.61,36.61,0,0,1,157.3,49.27Z"/><path d="M347.38,274.42,314.45,234.6a61.37,61.37,0,1,0-102.65-64h0a61.41,61.41,0,0,0-3,9.53l-.12.53c-.14.67-.27,1.34-.4,2,0,.26-.09.51-.13.76-.12.65-.22,1.3-.31,2,0,.28-.07.55-.1.83-.08.66-.16,1.31-.22,2l-.06.77c-.05.7-.1,1.4-.14,2.11h0c0,.9-.06,1.8-.06,2.71a61.48,61.48,0,0,0,46.61,59.58c.62.16,1.25.3,1.89.44l.86.18c.81.16,1.62.31,2.43.44l.74.1c.72.11,1.45.2,2.19.28l.55.06c.89.09,1.77.16,2.67.21l.65,0c.93,0,1.86.07,2.8.07s1.91,0,2.85-.08c.78,0,1.56-.1,2.33-.16h0a61.29,61.29,0,0,0,22.27-6.26l33.47,40.47a11.57,11.57,0,0,0,17.83-14.74Zm-78.75-42.36c-.53,0-1.05,0-1.57,0h0c-.62,0-1.23-.07-1.85-.12h-.06c-.59,0-1.18-.12-1.77-.2l-.11,0c-.57-.08-1.14-.17-1.7-.28l-.16,0c-.55-.1-1.09-.22-1.63-.35l-.2,0c-.53-.13-1.05-.27-1.57-.42l-.23-.07c-.5-.15-1-.31-1.49-.48l-.27-.09-1.43-.53-.3-.12c-.46-.19-.91-.38-1.36-.59l-.32-.14-1.3-.64-.35-.17-1.23-.68-.37-.21-1.17-.71-.38-.25-1.11-.75-.4-.28-1-.78-.41-.33-1-.8-.42-.36-.92-.83-.43-.41c-.28-.28-.57-.56-.85-.85l-.43-.45c-.27-.28-.53-.57-.79-.86s-.29-.33-.43-.5-.49-.57-.73-.87l-.43-.54-.67-.88c-.15-.2-.28-.4-.42-.6l-.62-.88-.41-.64c-.18-.3-.37-.59-.55-.9s-.27-.45-.4-.68l-.5-.9-.37-.72-.45-.9c-.12-.26-.23-.52-.35-.77s-.27-.6-.39-.91-.22-.54-.33-.81l-.34-.9c-.1-.28-.2-.57-.29-.86s-.21-.59-.3-.89-.17-.6-.26-.9-.17-.59-.24-.89-.15-.63-.22-.95-.14-.58-.2-.88-.12-.66-.18-1l-.15-.86c-.05-.35-.09-.71-.13-1.06s-.08-.55-.11-.83-.06-.79-.09-1.19c0-.24,0-.48-.05-.72,0-.58,0-1.16,0-1.75a1.21,1.21,0,0,1,0-.19c0-.79,0-1.56.08-2.34,0-.2,0-.39,0-.59,0-.62.11-1.23.19-1.83l.06-.5a37.53,37.53,0,0,1,.94-4.65,38.25,38.25,0,1,1,36.95,48.17Z"/><path d="M253.81,265.69V282h-70V221a10,10,0,0,0-2.93-7.07l-36.13-36.14a100,100,0,0,1,12.28-.77h.29a95.77,95.77,0,0,1,38.47,8.05,72.89,72.89,0,0,1,5.13-19.58,116,116,0,0,0-43.6-8.47H157A117.94,117.94,0,0,0,81.9,184.33a125.14,125.14,0,0,0-41.73,68.1,9.93,9.93,0,0,0-.25,2.24V292a10,10,0,0,0,10,10H263.81a10,10,0,0,0,10-10V267c-1.72.12-3.44.19-5.18.19A73.83,73.83,0,0,1,253.81,265.69ZM59.92,255.82a105,105,0,0,1,34.75-56.1,99,99,0,0,1,27.47-16.19l41.65,41.65V282H59.92Z"/><path d="M137.87,232.59h-7.13v-7.13a8,8,0,0,0-16,0v7.13h-7.13a8,8,0,1,0,0,16h7.13v7.14a8,8,0,0,0,16,0v-7.14h7.13a8,8,0,0,0,0-16Z"/></svg>
