<svg xmlns="http://www.w3.org/2000/svg" width="275.45" height="310.16" viewBox="0 0 275.45 310.16"><title>Find a hospital or location</title><path d="M183.84,131.71c0,31.85-48.17,107.55-73.84,144.37-25.66-36.82-73.83-112.5-73.83-144.37A73.8,73.8,0,0,1,142.33,65.35l-4.24-20.29A91.09,91.09,0,0,0,18.91,131.71c0,20.49,14.29,54.53,42.48,101.18,20.56,34,41.42,62.87,41.63,63.16a8.63,8.63,0,0,0,14,0c.21-.29,21.06-29.12,41.63-63.16,28.18-46.65,42.47-80.69,42.47-101.18A90.79,90.79,0,0,0,196,101.59l-20.41-3.78A73.32,73.32,0,0,1,183.84,131.71Z"/><path d="M64.22,131.88A45.79,45.79,0,1,0,110,86.1,45.84,45.84,0,0,0,64.22,131.88Zm74.31,0A28.53,28.53,0,1,1,110,103.35,28.56,28.56,0,0,1,138.53,131.88Z"/><path d="M254.56,105.91,230,76.21a45.76,45.76,0,1,0-13.7,10.51l25,30.18a8.62,8.62,0,1,0,13.29-11ZM167.3,45.78a28.53,28.53,0,1,1,28.53,28.54A28.56,28.56,0,0,1,167.3,45.78Z"/></svg>
