<?xml version="1.0" encoding="utf-8"?>
<svg version="1.1" xmlns="http://www.w3.org/2000/svg" xmlns:xlink="http://www.w3.org/1999/xlink" x="0px" y="0px"
	 viewBox="0 0 275.5 347.3" style="enable-background:new 0 0 275.5 347.3;" xml:space="preserve">
<title>Find a Hospital or Location</title>
<path d="M191.2,152.7c0,36.9-55.8,124.7-85.6,167.4C75.8,277.4,20,189.6,20,152.7c0-47.3,38.3-85.6,85.5-85.6c13,0,25.8,3,37.5,8.7
	l-4.9-23.5c-55.5-18-115,12.4-133,67.9C1.7,130.6,0,141.6,0,152.7c0,23.7,16.6,63.2,49.2,117.3c23.8,39.5,48,72.9,48.3,73.2
	c3.2,4.5,9.5,5.5,14,2.2c0.9-0.6,1.6-1.4,2.2-2.2c0.2-0.3,24.4-33.8,48.2-73.2c32.7-54.1,49.2-93.5,49.2-117.3
	c0-11.9-2-23.7-5.9-34.9l-23.7-4.4C187.9,125.5,191.2,139,191.2,152.7z"/>
<path d="M52.5,152.9c0,29.3,23.8,53.1,53.1,53.1s53.1-23.8,53.1-53.1c0-29.3-23.8-53.1-53.1-53.1C76.3,99.8,52.5,123.6,52.5,152.9z
	 M138.7,152.9c0,18.3-14.8,33.1-33.1,33.1s-33.1-14.8-33.1-33.1c0-18.3,14.8-33.1,33.1-33.1C123.8,119.8,138.6,134.6,138.7,152.9z"
	/>
<path d="M273.2,122.8l-28.5-34.4c19.5-21.9,17.5-55.5-4.4-75s-55.5-17.5-75,4.4s-17.5,55.5,4.4,75c16.2,14.4,39.6,17.5,59.1,7.8
	l28.9,35c3.4,4.3,9.7,5.1,14,1.7c4.3-3.4,5.1-9.7,1.7-14C273.4,123,273.3,122.9,273.2,122.8L273.2,122.8z M172,53.1
	c0-18.3,14.8-33.1,33.1-33.1s33.1,14.8,33.1,33.1s-14.8,33.1-33.1,33.1C186.8,86.1,172,71.3,172,53.1z"/>
</svg>
