<svg xmlns="http://www.w3.org/2000/svg" width="274.76" height="332.84" viewBox="0 0 274.76 332.84"><title>Medal</title><path d="M203.23,110.59a68.59,68.59,0,1,0-68.59,68.59A68.66,68.66,0,0,0,203.23,110.59Zm-118.9,0a50.31,50.31,0,1,1,50.31,50.32A50.37,50.37,0,0,1,84.33,110.59Z"/><path d="M213.47,184.87l15.24-5.93,2.1-37.1,20.11-31.25L230.81,79.35l-2.1-37.11L194.07,28.79,170.57,0,134.64,9.48,98.7,0,75.2,28.79,40.56,42.24,38.47,79.35,18.35,110.59l20.12,31.25,2.09,37.1,19.68,7.65L0,285l60.52-7.2,20.33,55,56.53-92.35,56.53,92.36,20.33-55,60.52,7.2ZM56.44,136,40.09,110.59l16.35-25.4L58.14,55,86.31,44.08l19.11-23.41,29.22,7.7,29.22-7.7L183,44.08,211.13,55l1.7,30.17,16.36,25.4L212.83,136l-1.7,30.17L183,177.11l-19.11,23.41-29.22-7.71-29.22,7.71L86.31,177.11,58.14,166.17Zm28.5,155.16L72.67,258,35.26,262.4l41.6-68L98.7,221.19l23.14-6.1,4.83,7.89ZM202.09,258l-12.26,33.21-47.37-77.39,28.11,7.42,23.5-28.79,2.09-.81L239.5,262.4Z"/></svg>
