<svg xmlns="http://www.w3.org/2000/svg" width="378.89" height="322.19" viewBox="0 0 378.89 322.19"><title>th-services</title><path d="M86.53,190.4l1.88-4.23h0l13-29.28,16.67,38.23a10.73,10.73,0,0,0,20.2-1.55l14.52-54.91,19.56,97a10.71,10.71,0,0,0,10.19,8.59h.32a10.72,10.72,0,0,0,10.36-8L215,154h52.19a10.72,10.72,0,0,0,0-21.44H206.78a10.72,10.72,0,0,0-10.37,8l-12.09,45.75-19.57-97a10.72,10.72,0,0,0-20.87-.62L125.46,158.3,111.38,126a10.71,10.71,0,0,0-9.78-6.43h0A10.71,10.71,0,0,0,91.76,126l-22,49.36H11.09a10.73,10.73,0,1,0,0,21.45H76.73A10.74,10.74,0,0,0,86.53,190.4Z" /><path d="M375,87a100.59,100.59,0,0,0-39-68.6C320,6.37,301.51,0,282.44,0,255,0,230.16,9.08,212.56,25.58A87.54,87.54,0,0,0,194,50.66a87.51,87.51,0,0,0-18.57-25.08C157.81,9.08,133,0,105.53,0,86.46,0,67.94,6.37,52,18.43A100.59,100.59,0,0,0,13,87c-3,25.88,4.28,50.75,20.4,70,1.13,1.36,2.36,2.81,3.65,4.31H60.72l1.63-3.66c-4.82-5.42-9.06-10.28-12.5-14.4C37.54,128.58,32,109.45,34.3,89.47A79.08,79.08,0,0,1,64.92,35.54c12.2-9.22,26.24-14.1,40.61-14.1,22.31,0,41.41,6.84,55.21,19.79,14.73,13.8,22.52,34.15,22.52,58.82a10.72,10.72,0,0,0,21.44,0c0-24.67,7.79-45,22.52-58.82,13.81-12.95,32.9-19.79,55.22-19.79,14.36,0,28.41,4.88,40.61,14.1a79,79,0,0,1,30.61,53.93c2.29,20-3.24,39.11-15.55,53.84C308.49,178.77,220.51,269.06,194,296.15c-17-17.38-59.3-60.75-95.26-99a24.68,24.68,0,0,1-17.2,13C127.05,258.69,183,315.6,186.34,319a10.73,10.73,0,0,0,15.29,0c4.78-4.86,117.51-119.52,152.94-161.93C370.68,137.78,377.93,112.91,375,87Z"/></svg>
