<?xml version="1.0" encoding="utf-8"?>
<svg version="1.1" xmlns="http://www.w3.org/2000/svg" xmlns:xlink="http://www.w3.org/1999/xlink" x="0px" y="0px"
	 viewBox="0 0 25 25" style="enable-background:new 0 0 25 25;" xml:space="preserve">
<style type="text/css">
	.st0{fill:#4776BD;}
</style>
<g>
	
		<image style="overflow:visible;opacity:0.45;" width="169" height="169" xlink:href="C5046C63D96C9AA.png"  transform="matrix(0.24 0 0 0.24 -7.8 -6.84)">
	</image>
	<g>
		<path class="st0" d="M23.7,4c-0.2-0.9-0.6-1.6-1.3-2.1c-0.7-0.5-1.6-0.7-2.4-0.5C19,1.6,18.3,2,17.8,2.8l-8.3,12l-2.3-3.2
			c-1-1.4-3.1-1.8-4.5-0.7c-0.7,0.5-1.2,1.3-1.3,2.1s0.1,1.7,0.6,2.4l5,6.9c0.6,0.8,1.6,1.3,2.6,1.3h0h0c1.1,0,2-0.5,2.6-1.4
			L23.1,6.5C23.6,5.7,23.8,4.9,23.7,4z"/>
	</g>
</g>
</svg>
