<svg xmlns="http://www.w3.org/2000/svg" width="303.2" height="617.69" viewBox="0 0 303.2 617.69"><defs><style>.c{fill:#d5dcf0;}</style></defs><title>th-mark</title><path class="c" d="M132.2,77.68l-6.55,8.07-.36,4.34a32.61,32.61,0,0,1,5.86-3.79v55.49s5-58.41,24.81-64.46A665.12,665.12,0,0,1,149.76,0S147.13,61.69,132.2,77.68Zm98.62,255.13V440.65l-15.14-6.11V363.22c0-8.32-1-15.13-5.39-18.26-6.26-4.23-10.7,4.64-10.7,4.64V316.72s-.35-16.65,14.43-15.14C231.22,303.2,230.82,332.81,230.82,332.81Z"/><path class="c" d="M160.25,416.59l-18.11,6.3V359.74s16.19,2.47,17.86,29.06Zm90.34,38.58-62-24.46V312c0-40.35,68.19-18,68.19-18L188.6,263.3s17-27.49,82.11-5.85L190,219.62c6.46-7.16,50.79,11.2,57.7,14.07l-58.15-28.5-43.33-.75c-9.44-.36,0-4.44,0-4.44a63.54,63.54,0,0,1,15.13-4.64c24.77-3.38,51.6,9.18,51.6,9.18a76.14,76.14,0,0,0-51.3-18.16c-30.51,1.26-63.1,15.13-32.48-11.7,0,0,32.38-28.91,82.47-4.54-17.66-30.67-56.9-27.29-56.9-27.29-24.21.85-73.19,11-87.77,76.16L51.85,230.66l-1.16,12.87L36.92,253.61l5,2.32v14.58l-5.35,1.92,12.51,13.82v19.12L45.9,309.3,52.36,319v162L1.92,502.44,0,513.64l7.77,14.62v89.43S52.51,490,173.36,506.72c0,0,20.18-28,129.84,0l-114.6-39s2.22-31.57,62-12.25m-144-22.1L85.24,440.5v-97s19,2.87,20.94,34.05Z"/></svg>
