<svg xmlns="http://www.w3.org/2000/svg" width="32" height="32" viewBox="0 0 32 32"><defs><style>.a{fill:#e01766;}.b{fill:none;}</style></defs><title>social-icons</title><circle class="a" cx="16" cy="16" r="3.36"/><path class="a" d="M21.41,11.81a1.22,1.22,0,1,1,0-2.43,1.22,1.22,0,0,1,0,2.43ZM16,21.22A5.22,5.22,0,1,1,21.22,16,5.22,5.22,0,0,1,16,21.22ZM23.9,10a2.83,2.83,0,0,0-.76-1.16A3,3,0,0,0,22,8.1a6.45,6.45,0,0,0-1.88-.36C19,7.68,18.72,7.68,16,7.68s-3,0-4.1.06A5.56,5.56,0,0,0,10,8.1a2.83,2.83,0,0,0-1.16.76A3,3,0,0,0,8.1,10a6.45,6.45,0,0,0-.36,1.88C7.68,13,7.68,13.28,7.68,16s0,3,.06,4.1A5.56,5.56,0,0,0,8.1,22a2.83,2.83,0,0,0,.76,1.16A3,3,0,0,0,10,23.9a6.45,6.45,0,0,0,1.88.36c1.06.06,1.38.06,4.1.06s3,0,4.1-.06A5.56,5.56,0,0,0,22,23.9,3.31,3.31,0,0,0,23.9,22a6.45,6.45,0,0,0,.36-1.88c.06-1.06.06-1.38.06-4.1s0-3-.06-4.1A6.45,6.45,0,0,0,23.9,10Z"/><path class="a" d="M26.08,20.16a7.36,7.36,0,0,1-.48,2.46,5.12,5.12,0,0,1-3,3,7.36,7.36,0,0,1-2.46.48c-1.09.06-1.44.06-4.16.06s-3.1,0-4.16-.06a7.36,7.36,0,0,1-2.46-.48,4.86,4.86,0,0,1-1.8-1.18,5.26,5.26,0,0,1-1.18-1.8,7.36,7.36,0,0,1-.48-2.46c-.06-1.09-.06-1.44-.06-4.16s0-3.1.06-4.16A7.36,7.36,0,0,1,6.4,9.38a4.86,4.86,0,0,1,1.18-1.8A5.26,5.26,0,0,1,9.38,6.4a7.36,7.36,0,0,1,2.46-.48c1.09-.06,1.44-.06,4.16-.06h0c2.75,0,3.1,0,4.16.06a7.36,7.36,0,0,1,2.46.48,4.86,4.86,0,0,1,1.8,1.18,5.26,5.26,0,0,1,1.18,1.8,7.36,7.36,0,0,1,.48,2.46c.06,1.09.06,1.44.06,4.16S26.11,19.1,26.08,20.16ZM16,0A16,16,0,1,0,32,16,16,16,0,0,0,16,0Z"/><rect class="b" x="-276.29" y="-4794.83" width="1600" height="5202"/></svg>