<svg xmlns="http://www.w3.org/2000/svg" width="32.67" height="32.67" viewBox="0 0 32.67 32.67"><defs><style>.k{fill:#3698d4;}</style></defs><title>twitter icon</title><path class="k" d="M26,12.78v.58A13.11,13.11,0,0,1,5.88,24.41c.36,0,.72.06,1.11.06a9.37,9.37,0,0,0,5.72-2,4.6,4.6,0,0,1-4.31-3.2,3.61,3.61,0,0,0,.85.07,4.91,4.91,0,0,0,1.21-.17,4.59,4.59,0,0,1-3.7-4.51v-.06a4.64,4.64,0,0,0,2.09.59A4.66,4.66,0,0,1,7.42,9.05a13,13,0,0,0,9.5,4.8,5.69,5.69,0,0,1-.13-1,4.61,4.61,0,0,1,8-3.14,9.44,9.44,0,0,0,2.94-1.11,4.53,4.53,0,0,1-2,2.55,9.12,9.12,0,0,0,2.65-.72A10.19,10.19,0,0,1,26,12.78ZM16.34,0A16.34,16.34,0,1,0,32.67,16.34,16.35,16.35,0,0,0,16.34,0Z"></path></svg>