<svg xmlns="http://www.w3.org/2000/svg" width="32.67" height="32.67" viewBox="0 0 32.67 32.67"><defs><style>.a{fill:#dc4027;}.b{fill:none;}</style></defs><title>social-icons</title><path class="a" d="M26.47,17.48v2.25H24.21V17.48H22V15.23h2.25V13h2.26v2.26h2.25v2.25ZM11.8,24.24a7.91,7.91,0,1,1,0-15.81,7.6,7.6,0,0,1,5.29,2.06L15,12.55a4.41,4.41,0,0,0-3.13-1.21,5,5,0,0,0,0,10,4.26,4.26,0,0,0,4.47-3.4H11.83V15.19h7.45a8.05,8.05,0,0,1,.13,1.31C19.38,21,16.37,24.24,11.8,24.24ZM16.34,0A16.34,16.34,0,1,0,32.67,16.34,16.35,16.35,0,0,0,16.34,0Z"/><rect class="b" x="-40.98" y="-4768.01" width="1600" height="5202"/></svg>