<svg xmlns="http://www.w3.org/2000/svg" width="32.67" height="32.67" viewBox="0 0 32.67 32.67"><defs><style>.a{fill:#0072b3;}.b{fill:none;}</style></defs><title>social-icons</title><path class="a" d="M26.17,25.32H22.32v-6c0-1.44,0-3.3-2-3.3S18,17.55,18,19.15v6.14H14.15V12.87h3.69v1.7h.06a4.06,4.06,0,0,1,3.66-2c3.93,0,4.64,2.58,4.64,5.91v6.83ZM9.8,11.21A2.23,2.23,0,1,1,12,9,2.2,2.2,0,0,1,9.8,11.21Zm2,14.11H7.91V12.91h3.85ZM16.34,0A16.34,16.34,0,1,0,32.67,16.34,16.35,16.35,0,0,0,16.34,0Z"/><rect class="b" x="-167.1" y="-4778.59" width="1600" height="5202"/></svg>