<svg xmlns="http://www.w3.org/2000/svg" viewBox="0 0 200 200"><path class="star-half-1" d="M100 151.4l-50.8 26.7 9.7-56.5-41-40 56.7-8.3L100 21.9v129.5"/><path class="star-half-2" d="M100 151.4l50.8 26.7-9.7-56.5 41-40-56.7-8.3L100 21.9z"/><path d="M150.8 180.6c-.4 0-.8-.1-1.2-.3L100 154.2l-49.6 26.1c-.8.4-1.9.4-2.6-.2-.8-.6-1.2-1.5-1-2.4l9.5-55.2-40.2-39.1c-.7-.7-.9-1.7-.6-2.6.3-.9 1.1-1.6 2-1.7L73 71l24.8-50.2c.4-.9 1.3-1.4 2.2-1.4s1.8.5 2.2 1.4L127 71l55.4 8.1c.9.1 1.7.8 2 1.7.3.9 0 1.9-.6 2.6l-40.1 39.1 9.5 55.2c.2.9-.2 1.9-1 2.4-.4.3-.9.5-1.4.5zM100 148.9c.4 0 .8.1 1.2.3l46.3 24.3-8.8-51.5c-.1-.8.1-1.6.7-2.2l37.4-36.5-51.8-7.5c-.8-.1-1.5-.6-1.9-1.4L100 27.5 76.9 74.4c-.4.7-1.1 1.2-1.9 1.4l-51.7 7.5 37.4 36.5c.6.6.9 1.4.7 2.2l-8.8 51.5 46.3-24.3c.3-.2.7-.3 1.1-.3z" fill="#939596"/></svg>