<svg xmlns="http://www.w3.org/2000/svg" width="286.03" height="281.32" viewBox="0 0 286.03 281.32"><title>Schedule</title><path d="M243 48.5h-15.73V22.7a9 9 0 00-17.93 0v25.8H176V22.7a9 9 0 00-17.92 0v25.8h-33.34V22.7a9 9 0 00-17.93 0v25.8H73.47V22.7a9 9 0 10-17.92 0v25.8H39.81a26.61 26.61 0 00-26.59 26.58V239.3a26.62 26.62 0 0026.59 26.59H243a26.61 26.61 0 0026.58-26.59V75.08A26.61 26.61 0 00243 48.5zm8.66 190.8A8.67 8.67 0 01243 248H39.81a8.66 8.66 0 01-8.66-8.66v-124h220.52zm0-142H31.15V75.08a8.67 8.67 0 018.66-8.66H243a8.68 8.68 0 018.66 8.66z"/><circle cx="72.97" cy="153.55" r="13.74"/><circle cx="140.35" cy="153.55" r="13.74"/><circle cx="72.97" cy="208.09" r="13.74"/><circle cx="140.35" cy="208.09" r="13.74"/><circle cx="209.71" cy="208.09" r="13.74"/><path d="M207.69 170.6a5.85 5.85 0 01-4-1.6l-12.63-12a5.83 5.83 0 118-8.46l7.47 7.08 12.9-20.6a5.83 5.83 0 119.87 6.19l-16.67 26.62a5.84 5.84 0 01-4.2 2.69 6.13 6.13 0 01-.74.08z"/></svg>