<svg xmlns="http://www.w3.org/2000/svg" viewBox="0 0 378.9 322.2"><style>.st0{fill:#003056}</style><title>Find a Provider</title><path class="st0" d="M157.3 142.4c31.2 0 56.6-25.3 56.6-56.6s-25.3-56.6-56.6-56.6-56.6 25.3-56.6 56.6c.1 31.3 25.4 56.6 56.6 56.6zm0-93.1c20.2 0 36.6 16.4 36.6 36.6s-16.4 36.6-36.6 36.6-36.6-16.4-36.6-36.6c.1-20.2 16.4-36.6 36.6-36.6zm190.1 225.1l-32.9-39.8c22.5-25.3 20.3-64.1-5-86.6s-64.1-20.3-86.6 5c-4.6 5.2-8.4 11.2-11 17.6-1.3 3.1-2.3 6.3-3 9.5l-.1.5c-.1.7-.3 1.3-.4 2 0 .3-.1.5-.1.8-.1.6-.2 1.3-.3 2 0 .3-.1.6-.1.8-.1.7-.2 1.3-.2 2l-.1.8c-.1.7-.1 1.4-.1 2.1 0 .9-.1 1.8-.1 2.7 0 28.2 19.2 52.8 46.6 59.6.6.2 1.2.3 1.9.4l.9.2c.8.2 1.6.3 2.4.4l.7.1c.7.1 1.5.2 2.2.3l.5.1c.9.1 1.8.2 2.7.2h.6c.9 0 1.9.1 2.8.1s1.9 0 2.9-.1c.8 0 1.6-.1 2.3-.2 7.8-.7 15.3-2.8 22.3-6.3l33.5 40.5c4.2 4.8 11.5 5.4 16.3 1.2 4.6-4 5.2-11 1.4-15.9zm-78.8-42.3H267c-.6 0-1.2-.1-1.9-.1h-.1c-.6 0-1.2-.1-1.8-.2h-.1c-.6-.1-1.1-.2-1.7-.3h-.2c-.5-.1-1.1-.2-1.6-.4h-.2c-.5-.1-1-.3-1.6-.4l-.2-.1c-.5-.1-1-.3-1.5-.5l-.3-.1-1.4-.5-.3-.1c-.5-.2-.9-.4-1.4-.6l-.3-.1-1.3-.6-.4-.2-1.2-.7-.4-.2-1.2-.7-.4-.2-1.1-.8-.4-.3-1-.8-.4-.3-1-.8-.4-.4-.9-.8-.4-.4-.9-.9-.4-.4c-.3-.3-.5-.6-.8-.9s-.3-.3-.4-.5-.5-.6-.7-.9l-.4-.5-.7-.9c-.1-.2-.3-.4-.4-.6l-.6-.9-.4-.6-.6-.9c-.2-.3-.3-.4-.4-.7l-.5-.9-.4-.7-.4-.9c-.1-.3-.2-.5-.4-.8s-.3-.6-.4-.9-.2-.5-.3-.8l-.3-.9-.3-.9-.3-.9-.3-.9c-.1-.3-.2-.6-.2-.9s-.1-.6-.2-.9-.1-.6-.2-.9-.1-.7-.2-1l-.1-.9c-.1-.4-.1-.7-.1-1.1s-.1-.6-.1-.8-.1-.8-.1-1.2c0-.2 0-.5-.1-.7v-2c0-.8 0-1.6.1-2.3v-.6c0-.6.1-1.2.2-1.8l.1-.5c.2-1.6.5-3.1.9-4.6 5.5-20.4 26.5-32.5 46.9-27s32.5 26.5 27 46.9c-4.5 16.7-19.6 28.3-36.9 28.3v-.1z"/><path class="st0" d="M253.8 265.7V282h-70v-61c0-2.7-1.1-5.2-2.9-7.1l-36.1-36.1c4.1-.5 8.2-.8 12.3-.8h.3c13.2 0 26.3 2.7 38.5 8.1.8-6.7 2.5-13.3 5.1-19.6-13.9-5.6-28.7-8.5-43.6-8.5h-.4c-27.4.1-54 9.7-75.1 27.3-21 17.5-35.6 41.5-41.7 68.1-.2.7-.3 1.5-.2 2.2V292c0 5.5 4.5 10 10 10h213.9c5.5 0 10-4.5 10-10v-25c-1.7.1-3.4.2-5.2.2-5 0-10-.5-14.9-1.5zm-193.9-9.9c5.3-21.9 17.4-41.6 34.8-56.1 8.2-6.8 17.5-12.3 27.5-16.2l41.7 41.6V282h-104v-26.2z"/><path class="st0" d="M137.9 232.6h-7.1v-7.1c0-4.4-3.6-8-8-8s-8 3.6-8 8v7.1h-7.1c-4.4 0-8 3.6-8 8s3.6 8 8 8h7.1v7.1c0 4.4 3.6 8 8 8s8-3.6 8-8v-7.1h7.1c4.4 0 8-3.6 8-8s-3.6-8-8-8z"/></svg>
