<?xml version="1.0" encoding="utf-8"?>
<!-- Generator: Adobe Illustrator 23.1.1, SVG Export Plug-In . SVG Version: 6.00 Build 0)  -->
<svg version="1.1" id="Layer_1" xmlns="http://www.w3.org/2000/svg" xmlns:xlink="http://www.w3.org/1999/xlink" x="0px" y="0px"
	 viewBox="0 0 378.9 322.2" style="enable-background:new 0 0 378.9 322.2;" xml:space="preserve">
<style type="text/css">
	.st0{fill:#003056;}
</style>
<title>Find a Provider</title>
<path class="st0" d="M157.3,142.4c31.2,0,56.6-25.3,56.6-56.6s-25.3-56.6-56.6-56.6s-56.6,25.3-56.6,56.6
	C100.8,117.1,126.1,142.4,157.3,142.4z M157.3,49.3c20.2,0,36.6,16.4,36.6,36.6s-16.4,36.6-36.6,36.6s-36.6-16.4-36.6-36.6
	C120.8,65.7,137.1,49.3,157.3,49.3z"/>
<path class="st0" d="M347.4,274.4l-32.9-39.8c22.5-25.3,20.3-64.1-5-86.6s-64.1-20.3-86.6,5c-4.6,5.2-8.4,11.2-11,17.6l0,0
	c-1.3,3.1-2.3,6.3-3,9.5l-0.1,0.5c-0.1,0.7-0.3,1.3-0.4,2c0,0.3-0.1,0.5-0.1,0.8c-0.1,0.6-0.2,1.3-0.3,2c0,0.3-0.1,0.6-0.1,0.8
	c-0.1,0.7-0.2,1.3-0.2,2l-0.1,0.8c-0.1,0.7-0.1,1.4-0.1,2.1l0,0c0,0.9-0.1,1.8-0.1,2.7c0,28.2,19.2,52.8,46.6,59.6
	c0.6,0.2,1.2,0.3,1.9,0.4l0.9,0.2c0.8,0.2,1.6,0.3,2.4,0.4l0.7,0.1c0.7,0.1,1.5,0.2,2.2,0.3l0.5,0.1c0.9,0.1,1.8,0.2,2.7,0.2h0.6
	c0.9,0,1.9,0.1,2.8,0.1s1.9,0,2.9-0.1c0.8,0,1.6-0.1,2.3-0.2l0,0c7.8-0.7,15.3-2.8,22.3-6.3l33.5,40.5c4.2,4.8,11.5,5.4,16.3,1.2
	C350.6,286.3,351.2,279.3,347.4,274.4L347.4,274.4z M268.6,232.1c-0.5,0-1,0-1.6,0l0,0c-0.6,0-1.2-0.1-1.9-0.1h-0.1
	c-0.6,0-1.2-0.1-1.8-0.2h-0.1c-0.6-0.1-1.1-0.2-1.7-0.3h-0.2c-0.5-0.1-1.1-0.2-1.6-0.4h-0.2c-0.5-0.1-1-0.3-1.6-0.4l-0.2-0.1
	c-0.5-0.1-1-0.3-1.5-0.5l-0.3-0.1l-1.4-0.5l-0.3-0.1c-0.5-0.2-0.9-0.4-1.4-0.6l-0.3-0.1l-1.3-0.6l-0.4-0.2l-1.2-0.7l-0.4-0.2
	l-1.2-0.7l-0.4-0.2l-1.1-0.8l-0.4-0.3l-1-0.8l-0.4-0.3l-1-0.8l-0.4-0.4l-0.9-0.8l-0.4-0.4c-0.3-0.3-0.6-0.6-0.9-0.9l-0.4-0.4
	c-0.3-0.3-0.5-0.6-0.8-0.9s-0.3-0.3-0.4-0.5s-0.5-0.6-0.7-0.9l-0.4-0.5l-0.7-0.9c-0.1-0.2-0.3-0.4-0.4-0.6l-0.6-0.9l-0.4-0.6
	c-0.2-0.3-0.4-0.6-0.6-0.9s-0.3-0.4-0.4-0.7l-0.5-0.9l-0.4-0.7l-0.4-0.9c-0.1-0.3-0.2-0.5-0.4-0.8s-0.3-0.6-0.4-0.9
	s-0.2-0.5-0.3-0.8l-0.3-0.9c-0.1-0.3-0.2-0.6-0.3-0.9s-0.2-0.6-0.3-0.9s-0.2-0.6-0.3-0.9s-0.2-0.6-0.2-0.9s-0.1-0.6-0.2-0.9
	s-0.1-0.6-0.2-0.9s-0.1-0.7-0.2-1l-0.1-0.9c-0.1-0.4-0.1-0.7-0.1-1.1s-0.1-0.6-0.1-0.8s-0.1-0.8-0.1-1.2c0-0.2,0-0.5-0.1-0.7
	c0-0.6,0-1.2,0-1.8c0-0.1,0-0.1,0-0.2c0-0.8,0-1.6,0.1-2.3c0-0.2,0-0.4,0-0.6c0-0.6,0.1-1.2,0.2-1.8l0.1-0.5
	c0.2-1.6,0.5-3.1,0.9-4.6c5.5-20.4,26.5-32.5,46.9-27c20.4,5.5,32.5,26.5,27,46.9c-4.5,16.7-19.6,28.3-36.9,28.3L268.6,232.1z"/>
<path class="st0" d="M253.8,265.7V282h-70v-61c0-2.7-1.1-5.2-2.9-7.1l-36.1-36.1c4.1-0.5,8.2-0.8,12.3-0.8h0.3
	c13.2,0,26.3,2.7,38.5,8.1c0.8-6.7,2.5-13.3,5.1-19.6c-13.9-5.6-28.7-8.5-43.6-8.5H157c-27.4,0.1-54,9.7-75.1,27.3
	c-21,17.5-35.6,41.5-41.7,68.1c-0.2,0.7-0.3,1.5-0.2,2.2V292c0,5.5,4.5,10,10,10h213.9c5.5,0,10-4.5,10-10v-25
	c-1.7,0.1-3.4,0.2-5.2,0.2C263.7,267.2,258.7,266.7,253.8,265.7z M59.9,255.8c5.3-21.9,17.4-41.6,34.8-56.1
	c8.2-6.8,17.5-12.3,27.5-16.2l41.7,41.6V282H59.9V255.8z"/>
<path class="st0" d="M137.9,232.6h-7.1v-7.1c0-4.4-3.6-8-8-8s-8,3.6-8,8v7.1h-7.1c-4.4,0-8,3.6-8,8s3.6,8,8,8h7.1v7.1
	c0,4.4,3.6,8,8,8s8-3.6,8-8v-7.1h7.1c4.4,0,8-3.6,8-8S142.3,232.6,137.9,232.6z"/>
</svg>
