<svg xmlns="http://www.w3.org/2000/svg" width="275.45" height="310.16" viewBox="0 0 275.45 310.16"><title>Find a hospital or location</title><path d="M183.84 131.71c0 31.85-48.17 107.55-73.84 144.37-25.66-36.82-73.83-112.5-73.83-144.37a73.8 73.8 0 01106.16-66.36l-4.24-20.29a91.09 91.09 0 00-119.18 86.65c0 20.49 14.29 54.53 42.48 101.18 20.56 34 41.42 62.87 41.63 63.16a8.63 8.63 0 0014 0c.21-.29 21.06-29.12 41.63-63.16 28.18-46.65 42.47-80.69 42.47-101.18a90.79 90.79 0 00-5.12-30.12l-20.41-3.78a73.32 73.32 0 018.25 33.9z"/><path d="M64.22 131.88A45.79 45.79 0 10110 86.1a45.84 45.84 0 00-45.78 45.78zm74.31 0A28.53 28.53 0 11110 103.35a28.56 28.56 0 0128.53 28.53zm116.03-25.97L230 76.21a45.76 45.76 0 10-13.7 10.51l25 30.18a8.62 8.62 0 1013.29-11zM167.3 45.78a28.53 28.53 0 1128.53 28.54 28.56 28.56 0 01-28.53-28.54z"/></svg>