<svg xmlns="http://www.w3.org/2000/svg" width="32" height="32" viewBox="0 0 32 32"><defs><style>.l{fill:#ed1c24;}.m{fill:none;}</style></defs><title>youtube icon</title><polygon class="l" points="14.05 18.85 19.04 16 14.05 13.15 14.05 18.85"/><path class="l" d="M25.18,20.64a2.4,2.4,0,0,1-1.69,1.7c-1.51.41-7.49.41-7.49.41s-6,0-7.49-.41a2.4,2.4,0,0,1-1.69-1.7A25.87,25.87,0,0,1,6.43,16a24.07,24.07,0,0,1,.42-4.64,2.4,2.4,0,0,1,1.69-1.7C10.05,9.25,16,9.25,16,9.25s6,0,7.49.41a2.43,2.43,0,0,1,1.7,1.7A24.64,24.64,0,0,1,25.63,16,28,28,0,0,1,25.18,20.64ZM16,0A16,16,0,1,0,32,16,16,16,0,0,0,16,0Z"/><rect class="m" x="-165.24" y="-4699.26" width="1600" height="5202"/></svg>
