<svg xmlns="http://www.w3.org/2000/svg" width="32.67" height="32" viewBox="0 0 32.67 32"><defs><style>.i{fill:#c62026;fill-rule:evenodd;}.j{fill:none;}</style></defs><title>pinterest icon</title><path class="i" d="M16.34,0A16.17,16.17,0,0,0,0,16,16,16,0,0,0,10.38,30.9a15.07,15.07,0,0,1,.06-4.59l1.92-7.95A5.68,5.68,0,0,1,11.87,16c0-2.22,1.31-3.88,3-3.88a2,2,0,0,1,2.07,2.25c0,1.37-.89,3.42-1.35,5.33A2.33,2.33,0,0,0,18,22.57c2.9,0,5.13-3,5.13-7.33,0-3.83-2.81-6.51-6.82-6.51a7,7,0,0,0-7.38,6.94,6.14,6.14,0,0,0,1.22,3.66.46.46,0,0,1,.11.45c-.12.51-.4,1.6-.45,1.82s-.24.35-.55.21c-2-.93-3.32-3.85-3.32-6.19,0-5,3.75-9.69,10.8-9.69,5.67,0,10.07,4,10.07,9.24,0,5.52-3.55,10-8.48,10a4.41,4.41,0,0,1-3.74-1.84l-1,3.8a17.78,17.78,0,0,1-2,4.2,16.76,16.76,0,0,0,4.84.71A16.16,16.16,0,0,0,32.67,16,16.16,16.16,0,0,0,16.34,0"/><rect class="j" x="-342.05" y="-4800.05" width="1600" height="5202"/></svg>
