<?xml version="1.0" encoding="utf-8"?>
<!-- Generator: Adobe Illustrator 23.1.1, SVG Export Plug-In . SVG Version: 6.00 Build 0)  -->
<svg version="1.1" id="Layer_1" xmlns="http://www.w3.org/2000/svg" xmlns:xlink="http://www.w3.org/1999/xlink" x="0px" y="0px"
	 viewBox="0 0 359.2 315.6" style="enable-background:new 0 0 359.2 315.6;" xml:space="preserve">
<style type="text/css">
	.st0{fill:#003056;}
</style>
<title>Pay my Bill</title>
<path class="st0" d="M314,56.9c-0.5,0-1,0-1.5,0v-0.1H143.2C134.6,17.8,96-7,56.9,1.6S-6.9,48.9,1.7,87.9
	c6.5,29.6,30.7,52,60.8,56.2v171.5h226.5V189.4h70.3V102C359.1,77.1,338.9,56.9,314,56.9z M20,72.4C20,43.5,43.5,20,72.4,20
	s52.4,23.5,52.4,52.4s-23.5,52.4-52.4,52.4C43.5,124.9,20,101.4,20,72.4z M268.9,295.6H82.4V144.2c34.1-4.8,60.1-32.9,62.3-67.3
	h131.8c-5,7.4-7.7,16.2-7.7,25.1V295.6z M339.2,169.4h-50.3V102c0-13.9,11.3-25.1,25.1-25.1s25.1,11.3,25.1,25.1V169.4z"/>
<path class="st0" d="M240.7,124.9h-94.1c-5.5,0-10,4.5-10,10c0,5.5,4.5,10,10,10h94.1c5.5,0,10-4.5,10-10S246.2,124.9,240.7,124.9z"
	/>
<path class="st0" d="M240.7,179.6H107.4c-5.5,0-10,4.5-10,10s4.5,10,10,10h133.2c5.5,0,10-4.5,10-10S246.2,179.6,240.7,179.6z"/>
<path class="st0" d="M240.7,234.2H107.4c-5.5,0-10,4.5-10,10s4.5,10,10,10h133.2c5.5,0,10-4.5,10-10S246.2,234.2,240.7,234.2z"/>
<path class="st0" d="M77.6,111.3V103c8.8-2.2,16-8.3,16-18.6c0-8.8-5.4-13.8-13.2-16.6c-1.9-0.8-6.4-2.4-9-3.4s-6.2-2.5-6.2-6.2
	s3.3-5.5,7.9-5.5s10,2.6,13.5,6.2l6-9.9c-3.3-3.3-9.3-6.2-15.2-7.1v-8.6h-13v9.5c-2.6,0.7-5,1.9-7.1,3.6c-4,3.2-6.3,8.1-6.3,13.3
	c0,5.7,2.1,9.2,4.8,11.7c2.1,1.9,4.6,3.4,7.2,4.4c2,0.9,6.6,2.5,9.2,3.4s7.1,2.6,7.1,6.7s-3.5,6.2-8.1,6.2S60,89,55.6,84.4l-7,10.4
	c4.5,4.2,10,7.2,16,8.6v8L77.6,111.3z"/>
</svg>
