<?xml version="1.0" encoding="utf-8"?>
<!-- Generator: Adobe Illustrator 23.1.1, SVG Export Plug-In . SVG Version: 6.00 Build 0)  -->
<svg version="1.1" id="Layer_1" xmlns="http://www.w3.org/2000/svg" xmlns:xlink="http://www.w3.org/1999/xlink" x="0px" y="0px"
	 viewBox="0 0 286 281.3" style="enable-background:new 0 0 286 281.3;" xml:space="preserve">
<style type="text/css">
	.st0{fill:#003056;}
</style>
<title>Schedule</title>
<path class="st0" d="M243,48.5h-15.7V22.7c-0.4-5-4.8-8.6-9.8-8.2c-4.3,0.4-7.8,3.8-8.2,8.2v25.8H176V22.7c-0.5-4.9-4.9-8.6-9.8-8.1
	c-4.3,0.4-7.7,3.8-8.1,8.1v25.8h-33.3V22.7c-0.4-5-4.8-8.6-9.8-8.2c-4.3,0.4-7.8,3.8-8.2,8.2v25.8H73.5V22.7
	c0.5-4.9-3.2-9.3-8.1-9.8c-4.9-0.5-9.3,3.2-9.8,8.1c-0.1,0.6-0.1,1.1,0,1.7v25.8H39.8c-14.7,0-26.6,11.9-26.6,26.6v164.2
	c0,14.7,11.9,26.6,26.6,26.6H243c14.7,0,26.6-11.9,26.6-26.6V75.1C269.6,60.4,257.7,48.5,243,48.5z M251.7,239.3
	c0,4.8-3.9,8.7-8.6,8.7c0,0,0,0,0,0H39.8c-4.8,0-8.7-3.9-8.7-8.7l0,0v-124h220.5L251.7,239.3z M251.7,97.3H31.1V75.1
	c0-4.8,3.9-8.7,8.7-8.7H243c4.8,0,8.6,3.9,8.7,8.7V97.3z"/>
<circle class="st0" cx="73" cy="153.6" r="13.7"/>
<circle class="st0" cx="140.4" cy="153.6" r="13.7"/>
<circle class="st0" cx="73" cy="208.1" r="13.7"/>
<circle class="st0" cx="140.4" cy="208.1" r="13.7"/>
<circle class="st0" cx="209.7" cy="208.1" r="13.7"/>
<path class="st0" d="M207.7,170.6c-1.5,0-2.9-0.6-4-1.6l-12.6-12c-2.5-2.1-2.8-5.8-0.7-8.2s5.8-2.8,8.2-0.7c0.2,0.1,0.3,0.3,0.5,0.4
	l7.5,7.1l12.9-20.6c1.6-2.8,5.2-3.8,8-2.2c2.8,1.6,3.8,5.2,2.2,8c-0.1,0.1-0.2,0.3-0.3,0.4l-16.7,26.6c-0.9,1.5-2.5,2.5-4.2,2.7
	C208.2,170.6,207.9,170.6,207.7,170.6z"/>
</svg>
