<?xml version="1.0" encoding="utf-8"?>
<svg version="1.1" xmlns="http://www.w3.org/2000/svg" xmlns:xlink="http://www.w3.org/1999/xlink" x="0px" y="0px"
	 viewBox="0 0 275.5 310.2" style="enable-background:new 0 0 275.5 310.2;" xml:space="preserve">
<style type="text/css">
	.st0{fill:#003056;}
</style>
<title>Find a hospital or location</title>
<path class="st0" d="M183.8,131.7c0,31.9-48.2,107.6-73.8,144.4c-25.7-36.8-73.8-112.5-73.8-144.4c0-40.8,33-73.8,73.8-73.8
	c11.2,0,22.3,2.6,32.4,7.5l-4.2-20.3C90.2,29.5,38.9,55.8,23.3,103.6c-2.9,9.1-4.4,18.6-4.4,28.1c0,20.5,14.3,54.5,42.5,101.2
	c20.6,34,41.4,62.9,41.6,63.2c2.8,3.9,8.2,4.7,12,2c0.8-0.5,1.4-1.2,2-2c0.2-0.3,21.1-29.1,41.6-63.2
	c28.2-46.6,42.5-80.7,42.5-101.2c0-10.3-1.7-20.4-5.1-30.1l-20.4-3.8C181,108.3,183.9,119.9,183.8,131.7z"/>
<path class="st0" d="M64.2,131.9c0,25.3,20.5,45.8,45.8,45.8c25.3,0,45.8-20.5,45.8-45.8c0-25.3-20.5-45.8-45.8-45.8c0,0,0,0,0,0
	C84.7,86.1,64.3,106.6,64.2,131.9z M138.5,131.9c0,15.8-12.8,28.5-28.5,28.5s-28.5-12.8-28.5-28.5c0-15.8,12.8-28.5,28.5-28.5
	C125.7,103.4,138.5,116.1,138.5,131.9z"/>
<path class="st0" d="M254.6,105.9L230,76.2c16.8-18.9,15.1-47.8-3.8-64.6s-47.8-15.1-64.6,3.8s-15.1,47.8,3.8,64.6
	c14,12.4,34.2,15.1,50.9,6.7l25,30.2c3,3.7,8.5,4.2,12.1,1.1C257.1,115,257.6,109.6,254.6,105.9L254.6,105.9z M167.3,45.8
	c0-15.8,12.8-28.5,28.5-28.5s28.5,12.8,28.5,28.5c0,15.8-12.8,28.5-28.5,28.5C180.1,74.3,167.3,61.5,167.3,45.8z"/>
</svg>
