<?xml version="1.0" encoding="utf-8"?>
<svg version="1.1" xmlns="http://www.w3.org/2000/svg" xmlns:xlink="http://www.w3.org/1999/xlink" x="0px" y="0px"
	 viewBox="0 0 383.9 327.2" style="enable-background:new 0 0 383.9 327.2;" xml:space="preserve">
<style type="text/css">
	.st0{fill:#003056;}
</style>
<title>My TowerHealth</title>
<g>
	<path class="st0" d="M364.1,160.7c-7.9-6.1-17.8-9.5-27.9-9.5c-3.2,0-6.4,0.3-9.5,1c-2.8-40.7-20.7-78.6-50.4-106.9
		C245.8,16.1,205.8,0,163.6,0C73.4,0,0,73.4,0,163.6s73.4,163.6,163.6,163.6c0.1,0,0.3,0,0.4,0c40.5,0,79.1-14.9,109.1-42.1L289,302
		c2.3,2.4,5.4,3.8,8.7,3.9c3.3,0.1,6.5-1.1,8.9-3.4c0.2-0.2,0.3-0.3,0.5-0.5l65.8-69.6c0.3-0.4,0.7-0.7,1-1.2
		C390.4,208.8,386,177.2,364.1,160.7z M302.2,166.3c-1.4,1.5-2.8,3.1-4.1,4.7c-9.6-12.8-23.4-20-38.2-20c-10,0-19.9,3.4-27.8,9.5
		c-7.1,5.4-12.6,12.5-15.9,20.7c-16.3-8.1-34.5-12.3-52.7-12.3h-0.1c-28,0.1-55.2,9.9-76.7,27.8c-15.4,12.9-27.6,29.3-35.5,47.7
		c-16.9-23.4-26.2-52-26.1-80.9C25,87.2,87.2,25,163.6,25s138.6,62.2,138.6,138.6C302.2,164.5,302.2,165.4,302.2,166.3z M102.6,216
		c31.4-26.3,75.5-29.4,110.3-8c1.2,8.4,4.4,16.4,9.5,23.2c0.3,0.4,0.6,0.8,1,1.2l32.7,34.6c-25.3,22.8-57.8,35.2-91.9,35.2
		c-0.1,0-0.3,0-0.4,0l0,0h-0.1c-34.8,0-67.9-12.9-93.5-36.5C75.7,246.2,87,229.1,102.6,216z M247.2,180.6c3.6-2.8,8.2-4.4,12.7-4.5
		c14.2,0,25.7,14.9,25.7,33.3c0,6.9,5.6,12.5,12.5,12.5s12.5-5.6,12.5-12.5c0-18.4,11.5-33.3,25.6-33.3c4.6,0,9.1,1.6,12.8,4.5
		c10.7,8.1,13,23.9,5.1,35.2L298,275.2l-56.1-59.4C234.2,204.5,236.4,188.7,247.2,180.6z"/>
	<path class="st0" d="M163.6,41.2c-32.6,0-59.1,26.5-59.1,59.1c0,32.5,26.5,59,59.1,59.1l0,0c32.6,0,59.1-26.5,59.1-59.1
		S196.2,41.2,163.6,41.2z M163.6,66.2c18.8,0,34.1,15.3,34.1,34.1s-15.3,34.1-34.1,34.1s-34.1-15.3-34.1-34.1
		C129.6,81.5,144.8,66.2,163.6,66.2z"/>
</g>
</svg>
