<?xml version="1.0" encoding="utf-8"?>
<!-- Generator: Adobe Illustrator 23.1.1, SVG Export Plug-In . SVG Version: 6.00 Build 0)  -->
<svg version="1.1" id="Layer_1" xmlns="http://www.w3.org/2000/svg" xmlns:xlink="http://www.w3.org/1999/xlink" x="0px" y="0px"
	 viewBox="0 0 274.8 332.8" style="enable-background:new 0 0 274.8 332.8;" xml:space="preserve">
<style type="text/css">
	.st0{fill:#003056;}
</style>
<title>Medal</title>
<path class="st0" d="M203.2,110.6c0-37.9-30.7-68.6-68.6-68.6c-37.9,0-68.6,30.7-68.6,68.6s30.7,68.6,68.6,68.6
	C172.5,179.1,203.2,148.5,203.2,110.6z M84.3,110.6c0-27.8,22.5-50.3,50.3-50.3c27.8,0,50.3,22.5,50.3,50.3
	c0,27.8-22.5,50.3-50.3,50.3C106.9,160.9,84.4,138.4,84.3,110.6z"/>
<path class="st0" d="M213.5,184.9l15.2-5.9l2.1-37.1l20.1-31.2l-20.1-31.2l-2.1-37.1l-34.6-13.4L170.6,0l-35.9,9.5L98.7,0L75.2,28.8
	L40.6,42.2l-2.1,37.1l-20.1,31.2l20.1,31.2l2.1,37.1l19.7,7.6L0,285l60.5-7.2l20.3,55l56.5-92.4l56.5,92.4l20.3-55l60.5,7.2
	L213.5,184.9z M56.4,136l-16.3-25.4l16.4-25.4L58.1,55l28.2-10.9l19.1-23.4l29.2,7.7l29.2-7.7L183,44.1L211.1,55l1.7,30.2l16.4,25.4
	L212.8,136l-1.7,30.2L183,177.1l-19.1,23.4l-29.2-7.7l-29.2,7.7l-19.1-23.4l-28.2-10.9L56.4,136z M84.9,291.2L72.7,258l-37.4,4.4
	l41.6-68l21.8,26.8l23.1-6.1l4.8,7.9L84.9,291.2z M202.1,258l-12.3,33.2l-47.4-77.4l28.1,7.4l23.5-28.8l2.1-0.8l43.3,70.8L202.1,258
	z"/>
</svg>
