<?xml version="1.0" encoding="utf-8"?>
<svg version="1.1" xmlns="http://www.w3.org/2000/svg" xmlns:xlink="http://www.w3.org/1999/xlink" x="0px" y="0px"
	 viewBox="0 0 378.9 322.2" style="enable-background:new 0 0 378.9 322.2;" xml:space="preserve">
<style type="text/css">
	.st0{fill:#003056;}
</style>
<title>th-services</title>
<path class="st0" d="M86.5,190.4l1.9-4.2l0,0l13-29.3l16.7,38.2c2.4,5.4,8.7,7.9,14.1,5.5c3-1.3,5.2-3.9,6.1-7.1l14.5-54.9l19.6,97
	c1,4.9,5.2,8.4,10.2,8.6h0.3c4.9,0,9.1-3.3,10.4-8L215,154h52.2c5.9,0,10.7-4.8,10.7-10.7s-4.8-10.7-10.7-10.7h-60.4
	c-4.9,0-9.1,3.3-10.4,8l-12.1,45.8l-19.6-97c-1.2-5.8-6.8-9.6-12.6-8.4c-4,0.8-7.2,3.8-8.2,7.8l-18.4,69.6L111.4,126
	c-1.7-3.9-5.5-6.4-9.8-6.4l0,0c-4.3,0-8.1,2.5-9.8,6.4l-22,49.4H11.1c-5.9-0.2-10.9,4.5-11.1,10.4c-0.2,5.9,4.5,10.9,10.4,11.1
	c0.2,0,0.4,0,0.7,0h65.6C81,196.8,84.8,194.3,86.5,190.4z"/>
<path class="st0" d="M375,87c-3.1-27.2-17.2-52-39-68.6C320,6.4,301.5,0,282.4,0c-27.4,0-52.3,9.1-69.9,25.6
	c-7.6,7.2-13.9,15.7-18.6,25.1c-4.6-9.4-10.9-17.9-18.6-25.1C157.8,9.1,133,0,105.5,0C86.5,0,67.9,6.4,52,18.4
	C30.2,35,16.1,59.8,13,87c-3,25.9,4.3,50.8,20.4,70c1.1,1.4,2.4,2.8,3.7,4.3h23.7l1.6-3.7c-4.8-5.4-9.1-10.3-12.5-14.4
	C37.5,128.6,32,109.4,34.3,89.5c2.4-21.4,13.5-40.9,30.6-53.9c12.2-9.2,26.2-14.1,40.6-14.1c22.3,0,41.4,6.8,55.2,19.8
	c14.7,13.8,22.5,34.2,22.5,58.8c0,5.9,4.8,10.7,10.7,10.7s10.7-4.8,10.7-10.7c0-24.7,7.8-45,22.5-58.8c13.8-13,32.9-19.8,55.2-19.8
	c14.4,0,28.4,4.9,40.6,14.1c17.1,13.1,28.2,32.5,30.6,53.9c2.3,20-3.2,39.1-15.5,53.8C308.5,178.8,220.5,269.1,194,296.1
	c-17-17.4-59.3-60.8-95.3-99c-3.4,6.7-9.8,11.5-17.2,13C127.1,258.7,183,315.6,186.3,319c4.2,4.2,11,4.3,15.2,0.1
	c0,0,0.1-0.1,0.1-0.1c4.8-4.9,117.5-119.5,152.9-161.9C370.7,137.8,377.9,112.9,375,87z"/>
</svg>
