<?xml version="1.0" encoding="utf-8"?>
<svg version="1.1" xmlns="http://www.w3.org/2000/svg" xmlns:xlink="http://www.w3.org/1999/xlink" x="0px" y="0px"
	 viewBox="0 0 200 200" style="enable-background:new 0 0 200 200;" xml:space="preserve">
<style type="text/css">
	.star{fill:#939596;}
</style>
<polyline class="star-half-1" points="100,151.4 49.2,178.1 58.9,121.6 17.9,81.6 74.6,73.3 100,21.9 100,151.4 "/>
<polygon class="star-half-2" points="100,151.4 150.8,178.1 141.1,121.6 182.1,81.6 125.4,73.3 100,21.9 "/>
<path class="star" d="M150.8,180.6c-0.4,0-0.8-0.1-1.2-0.3L100,154.2l-49.6,26.1c-0.8,0.4-1.9,0.4-2.6-0.2c-0.8-0.6-1.2-1.5-1-2.4
	l9.5-55.2L16.1,83.4c-0.7-0.7-0.9-1.7-0.6-2.6c0.3-0.9,1.1-1.6,2-1.7L73,71l24.8-50.2c0.4-0.9,1.3-1.4,2.2-1.4s1.8,0.5,2.2,1.4
	L127,71l55.4,8.1c0.9,0.1,1.7,0.8,2,1.7c0.3,0.9,0,1.9-0.6,2.6l-40.1,39.1l9.5,55.2c0.2,0.9-0.2,1.9-1,2.4
	C151.8,180.4,151.3,180.6,150.8,180.6z M100,148.9c0.4,0,0.8,0.1,1.2,0.3l46.3,24.3l-8.8-51.5c-0.1-0.8,0.1-1.6,0.7-2.2l37.4-36.5
	L125,75.8c-0.8-0.1-1.5-0.6-1.9-1.4L100,27.5L76.9,74.4c-0.4,0.7-1.1,1.2-1.9,1.4l-51.7,7.5l37.4,36.5c0.6,0.6,0.9,1.4,0.7,2.2
	l-8.8,51.5l46.3-24.3C99.2,149,99.6,148.9,100,148.9z"/>
</svg>
